<?xml version="1.0" encoding="UTF-8"?>
<svg xmlns="http://www.w3.org/2000/svg" viewBox="0 0 5.83 5.86">
  <defs>
    <style>
      .cls-1 {
        isolation: isolate;
      }

      .cls-2 {
        fill: #333;
      }

      .cls-3 {
        fill: #666;
        mix-blend-mode: multiply;
        opacity: .24;
      }

      .cls-4 {
        fill: #474747;
      }
    </style>
  </defs>
  <g class="cls-1">
    <g id="_Шар_2" data-name="Шар 2">
      <g id="_Шар_1-2" data-name="Шар 1">
        <g>
          <path class="cls-3" d="M.69,3.29c0,1.42,1.15,2.57,2.57,2.57s2.57-1.15,2.57-2.57S4.68,.73,3.26,.73,.69,1.88,.69,3.29Z"/>
          <circle class="cls-2" cx="2.57" cy="2.57" r="2.57"/>
          <path class="cls-3" d="M3.7,.27c.43,.46,.69,1.07,.69,1.75,0,1.42-1.15,2.57-2.57,2.57-.41,0-.79-.1-1.13-.27,.47,.5,1.13,.82,1.87,.82,1.42,0,2.57-1.15,2.57-2.57,0-1.01-.59-1.89-1.44-2.3Z"/>
          <circle class="cls-2" cx="2.57" cy="2.57" r="1.66"/>
          <path class="cls-3" d="M1.19,2.87c0-.91,.74-1.66,1.66-1.66,.42,0,.79,.16,1.08,.41-.3-.43-.79-.71-1.36-.71-.92,0-1.66,.74-1.66,1.66,0,.5,.23,.94,.58,1.25-.19-.27-.3-.59-.3-.95Z"/>
          <path class="cls-4" d="M3.64,1.32c.25,.29,.4,.66,.4,1.07,0,.92-.74,1.66-1.66,1.66-.41,0-.78-.16-1.07-.4,.3,.35,.75,.58,1.25,.58,.91,0,1.66-.74,1.66-1.66,0-.5-.23-.95-.58-1.25Z"/>
          <path class="cls-4" d="M.2,2.77C.2,1.35,1.35,.2,2.77,.2c.66,0,1.25,.25,1.71,.66-.47-.53-1.15-.86-1.91-.86C1.15,0,0,1.15,0,2.57c0,.76,.34,1.44,.86,1.91-.41-.45-.66-1.05-.66-1.71Z"/>
        </g>
      </g>
    </g>
  </g>
</svg>