<?xml version="1.0" encoding="UTF-8"?>
<svg xmlns="http://www.w3.org/2000/svg" viewBox="0 0 98.56 62.36">
  <defs>
    <style>
      .cls-1 {
        isolation: isolate;
      }

      .cls-2 {
        fill: #4d4d4d;
      }

      .cls-3 {
        fill: #fffbf7;
      }

      .cls-4 {
        fill: #666;
      }

      .cls-4, .cls-5 {
        mix-blend-mode: multiply;
        opacity: .46;
      }
    </style>
  </defs>
  <g class="cls-1">
    <g id="_Шар_2" data-name="Шар 2">
      <g id="_Шар_1-2" data-name="Шар 1">
        <g>
          <g class="cls-5">
            <polygon class="cls-4" points="98.56 6.34 91.34 62.36 6.26 62.36 .82 .6 98.56 6.34"/>
          </g>
          <polygon class="cls-3" points="97.74 5.74 90.52 61.77 5.44 61.77 0 0 97.74 5.74"/>
          <polygon class="cls-2" points="1.67 2.73 95.93 7.65 89.08 59.58 7 59.58 1.67 2.73"/>
          <path class="cls-3" d="M54.37,57.66c-3.57,0-6.13-.52-6.73-2.24-.15-.44-.09-.87,.16-1.25,1.09-1.63,6.04-2.05,12.39-2.43,1.98-.12,4.2-.25,4.83-.44,.19-.51,.69-1.32,1.47-2.56,.66-1.05,1.84-2.92,2.02-3.61-1.85-.67-14.22-2.88-18.04-3.2-2.2-.18-8.28-2.38-13.18-4.14-2.53-.91-5.36-1.94-6.21-2.12-.8,1.2-3.75,7.68-5.05,10.53-.8,1.75-1.19,2.6-1.3,2.8-.58,1.02-8.58,2.33-11.72,2.11-.9-.06-2.13-.25-2.47-1.11-.66-1.69,2.13-3.22,4.83-4.7,1.06-.58,2.52-1.38,2.7-1.71,.26-.64,2.1-4.69,4-8.67,3.82-7.98,4.27-8.12,4.63-8.22,.83-.24,8.46,.93,12.7,1.62-1.25-2.69-2.6-5.37-3.04-5.92-1.05-.12-7.02,.52-11.42,1-7.11,.77-8.34,.86-8.72,.69-.93-.43-6.02-9.78-6.37-12.14-.03-.18-.11-.73,.26-1.06,.81-.72,2.3,.3,5.75,2.98,1,.78,2.37,1.84,2.79,2,1.83-.39,19.55-3.95,21.09-3.06,.59,.34,2.23,2.23,5.85,6.46,2.63,3.08,6.22,7.28,6.99,7.75,.16,.01,.45,.04,.84,.07,8.44,.69,11.72,.85,12.96,.82-.03-.05-.05-.1-.08-.15-2.68-5.06-3.59-7.25-3.38-8.08,.28-1.08,7.95-11.16,10.42-11.45,1.28-.15,2.58,.48,3.24,1.58,.7,1.16,.56,2.62-.39,3.99-.63,.91-1.48,1.98-2.29,3.02-1.18,1.49-2.96,3.74-2.99,4.36,.37,.82,4.7,7.04,7.46,10.94,.57,.14,1.19,.16,1.32,.03,.54-.58,3.94-2.21,6.41-1.32,1.1,.4,2.45,1.46,2.6,4.27,.08,1.44-.3,2.63-1.15,3.53-1.86,1.99-5.46,2.02-7.6,2.04-.39,0-.85,0-1.13,.03-.46,1.96-3.23,8.87-4.74,10.61-2.33,2.69-5.81,5.87-9.14,5.79-.83-.02-2.22,.09-3.84,.23-2.45,.2-4.76,.36-6.75,.36Zm-23.47-23.2c.54,0,1.83,.43,6.8,2.22,4.57,1.65,10.83,3.91,12.87,4.08,3.01,.25,17.93,2.68,18.87,3.55,.71,.66,.03,1.91-1.95,5.06-.56,.89-1.32,2.1-1.38,2.4-.14,.75-.93,.86-5.84,1.15-3.98,.24-10.63,.64-11.48,1.91-.04,.06-.06,.11-.02,.21,.7,2.04,8.23,1.42,12.27,1.09,1.65-.14,3.08-.25,3.97-.23,2.28,.06,5.12-1.8,8.22-5.38,1.52-1.75,4.46-9.38,4.51-10.24,0-.16,.06-.34,.19-.47,.3-.32,.81-.32,2.04-.33,1.96-.02,5.24-.05,6.76-1.67,.62-.66,.89-1.53,.83-2.66-.09-1.69-.67-2.76-1.73-3.19-1.89-.77-4.88,.63-5.26,.98-.74,.8-2.39,.34-2.71,.23-.12-.04-.23-.12-.3-.22-1.23-1.73-7.36-10.4-7.74-11.4-.33-.89,.66-2.28,3.18-5.47,.81-1.02,1.64-2.07,2.25-2.96,.68-.99,.81-1.95,.35-2.71-.42-.69-1.28-1.11-2.09-1.02-1.55,.18-8.98,9.22-9.42,10.59-.04,.38,.49,1.96,3.28,7.23,.28,.53,.42,.79,.47,.91,.08,.19,.06,.44-.06,.61-.29,.41-.48,.68-14.42-.47-.47-.04-.79-.07-.92-.07-.66-.05-1.96-1.42-7.72-8.15-2.22-2.6-4.98-5.82-5.53-6.2-1.62-.45-19.28,2.86-20.29,3.18-.55,.19-1.16-.22-3.73-2.22-1.17-.91-3.24-2.51-4.12-2.88,.37,2.01,4.7,9.95,5.7,11.08,.84,.02,4.68-.4,8.09-.76,10.27-1.11,11.76-1.17,12.21-.82,.73,.56,2.97,5.37,3.9,7.42,.09,.2,.06,.43-.07,.6-.13,.17-.35,.26-.56,.22-5.69-.93-12.1-1.86-13.2-1.83-1.18,1.36-7.31,14.67-7.95,16.22-.26,.64-1.28,1.23-3.22,2.29-1.37,.75-4.59,2.52-4.3,3.24,0,0,.08,.13,.56,.25,2.77,.66,10.58-.96,11.56-1.47,.16-.33,.65-1.41,1.21-2.63,4.49-9.85,5.17-10.97,5.64-11.19,.08-.04,.17-.06,.3-.06Zm48.01,5.78s0,.04,0,.07c0-.02,0-.04,0-.07ZM18.6,15.86s-.06,0-.09,.02c0,0,.04,0,.09-.02Z"/>
        </g>
      </g>
    </g>
  </g>
</svg>