<?xml version="1.0" encoding="UTF-8"?>
<svg xmlns="http://www.w3.org/2000/svg" viewBox="0 0 41.17 27.21">
  <defs>
    <style>
      .cls-1 {
        fill: #fff;
      }

      .cls-2 {
        isolation: isolate;
      }

      .cls-3 {
        fill: #666;
        mix-blend-mode: multiply;
        opacity: .26;
      }

      .cls-4 {
        fill: #ed1c24;
      }
    </style>
  </defs>
  <g class="cls-2">
    <g id="_Шар_2" data-name="Шар 2">
      <g id="_Шар_1-2" data-name="Шар 1">
        <g>
          <polygon class="cls-3" points="1.26 3.69 1.26 24.24 27.37 23.06 41.17 27.21 41.17 1.26 1.26 3.69"/>
          <polygon class="cls-1" points="0 2.42 0 22.98 26.11 21.8 39.9 25.95 39.9 0 0 2.42"/>
          <g>
            <path class="cls-4" d="M11.94,15.39c.12-.07,.21-.19,.21-.36,.1-3.92,.79-7.84,1.67-11.65,.09-.39-.51-.56-.61-.17-.83,3.35-1.32,6.7-1.74,10.11-2-2.83-7.64-2.89-8.92,.66-.68,1.89,.49,3.55,2.32,4.09,2.42,.71,5.22-.18,7.2-1.6,.44-.32,.26-.94-.14-1.07Zm-8.22-.02c-.52-2.22,1.9-3.11,3.74-3.05,1.87,.06,3.32,1.02,3.84,2.83,.04,.15,.15,.24,.27,.28-.02,.01-.05,.02-.07,.03-1.85,1.13-7,3.21-7.78-.09Z"/>
            <path class="cls-4" d="M19.53,17.4c-1.18-.19-2.27-.1-3.36-.71-.99-.55-1.61-1.46-1.45-2.37,1.6,.33,4.85,.95,5.09-.98,.24-1.97-2.56-2.26-3.86-1.78-1.7,.63-3.04,2.55-2.17,4.33,.89,1.82,3.82,3.11,5.74,2.38,.36-.14,.49-.79,0-.87Zm-2.68-4.95c.35-.06,.75-.05,1.1,.04,.55,.16,.74,.2,.4,.73-.33,.53-.53,.45-1.09,.47-.28,.01-.56,.02-.83,.02-.48,0-.96-.02-1.43-.06,.11-.18,.26-.35,.44-.52,.39-.35,.91-.6,1.42-.69Z"/>
            <path class="cls-4" d="M26.42,14.82c.11-.7-.95-1.02-1.08-.3-.2,1.29-2.12,3.62-3.29,1.73-.36-.58-.3-1.42,.01-2,.22-.41,.58-.73,1.02-.88,.2-.11,.41-.14,.64-.09,.5-.09,.81,.17,.92,.8-.19,.13-.08,.5,.17,.4,1.39-.53,.42-1.93-.62-2.2-1.69-.44-3.2,.9-3.48,2.51-.23,1.38,.57,3,2.04,3.22,1.14,.17,2.14-.43,2.81-1.3,.33,.81,.94,1.45,1.86,1.55,.42,.05,.56-.51,.32-.78-.76-.85-1.58-1.37-1.34-2.68Z"/>
            <path class="cls-4" d="M35.93,16.51c-1.9,.97-5.05,3.65-6.51,.55-.71-1.52,.31-3.24,1.9-3.63,1.79-.44,3.26,.93,3.73,2.52,.17,.58,1.04,.47,1.05-.14,.05-4.88,.35-9.74,.6-14.61,.01-.24-.39-.3-.43-.06-.68,4.19-1.01,8.4-1.17,12.64-.72-.87-1.75-1.47-2.96-1.52-1.9-.08-3.76,1.35-4.05,3.24-.26,1.65,.8,3.4,2.38,3.95,2.25,.79,4.2-1.03,5.85-2.27,.38-.29,.06-.88-.38-.65Z"/>
          </g>
        </g>
      </g>
    </g>
  </g>
</svg>