<?xml version="1.0" encoding="UTF-8"?>
<svg xmlns="http://www.w3.org/2000/svg" viewBox="0 0 18.87 31.02">
  <defs>
    <style>
      .cls-1 {
        fill: #fff;
      }

      .cls-2 {
        isolation: isolate;
      }

      .cls-3 {
        fill: #666;
        mix-blend-mode: multiply;
        opacity: .26;
      }

      .cls-4 {
        fill: #ed1c24;
      }
    </style>
  </defs>
  <g class="cls-2">
    <g id="_Шар_2" data-name="Шар 2">
      <g id="_Шар_1-2" data-name="Шар 1">
        <g>
          <polygon class="cls-3" points="18.46 5.17 17.54 26.16 2.53 26.87 2.53 8.14 18.46 5.17"/>
          <polygon class="cls-1" points="0 5.17 6.8 6.63 18.87 0 16.44 31.02 1.78 25.85 1.3 15.51 0 5.17"/>
          <path class="cls-4" d="M3.78,9.74c-.25,2.76-.89,6.6,.4,9.18,.22,.43,.82,.27,.95-.12,.47-1.38,.24-2.82,.13-4.25-.12-1.61-.3-3.2-.48-4.8-.07-.64-.95-.65-1,0h0Z"/>
          <path class="cls-4" d="M5.13,23.15c.22-.09,.38-.19,.51-.41,.09-.16,.12-.33,.18-.5,.09-.29-.06-.59-.31-.75,.2,.22,.21,.22,.03,0-.1-.1-.22-.17-.36-.21-.19-.06-.39-.06-.58,.01-.45,.17-.72,.57-.6,1.06,.05,.22,.21,.4,.4,.52,.25,.15,.62,.17,.87,0,.3-.2,.5-.44,.52-.82-.07,.18-.15,.35-.22,.53l.04-.04c-.1,.06-.2,.12-.31,.18,.02,0,.04-.01,.06-.02l-.75-.31c.08,.12-.07-.15-.02-.15-.03,0-.08,.23-.09,.26-.1,.35,.26,.8,.64,.64h0Z"/>
          <path class="cls-4" d="M8.63,8.97c-.57,1.68-.28,3.68-.25,5.44,.02,1.61-.17,3.31,.52,4.79,.19,.4,.71,.22,.84-.11,.63-1.56,.29-3.41,.23-5.06-.06-1.65,.11-3.51-.51-5.06-.16-.4-.69-.43-.84,0h0Z"/>
          <path class="cls-4" d="M9.55,22.78c.03-.1,.05-.18,.09-.27,.19-.47-.34-.8-.73-.73-.47,.08-.79,.64-.63,1.09,.1,.28,.35,.53,.67,.51,.44-.02,.81-.23,1.03-.62,.26-.47-.06-1.11-.63-1.09-.31,.01-.57,.11-.78,.34-.17,.19-.31,.51-.2,.77,0,.02,.01,.04,.02,.05,.2,.48,.61,.66,1.09,.44,.13-.06,.27-.18,.34-.31,.07-.13-.07,.04,.04-.06-.4-.24-.81-.47-1.21-.71,.02-.07,.07-.13,.14-.17,.07-.02,.06-.03-.02,0,.26,.11,.52,.21,.78,.32,.07,.14,.05,.29-.05,.44-.09,.05-.18,.1-.26,.15,.04,0,.07-.01,.11-.02-.15-.08-.3-.17-.44-.25,.02,.04,.03,.08,.04,.13,.05,.35,.54,.27,.63,0h0Z"/>
          <path class="cls-4" d="M13.3,9.77c-.46,1.35-.31,2.85-.33,4.26-.01,1.43-.19,2.91,.23,4.29,.17,.56,.97,.56,1.14,0,.42-1.38,.24-2.86,.23-4.29-.01-1.41,.13-2.91-.33-4.26-.16-.46-.78-.46-.94,0h0Z"/>
          <path class="cls-4" d="M13.74,22.54c.39-.01,.37-.48,.17-.68-.18-.18-.5-.15-.67,.02-.21,.21-.21,.53-.14,.79,.05,.19,.21,.35,.4,.4,.44,.12,.87-.14,1.08-.53,.21-.4,.15-.8-.04-1.19-.11-.23-.38-.34-.62-.35-.38-.02-.76,.21-1,.49-.32,.37-.33,.91,.08,1.23,.35,.27,1,.23,1.21-.23,.02-.04,.04-.08,.06-.12-.05,.06-.06,.07-.02,.02,.06-.06,.11-.1,.17-.16-.23,.06-.46,.12-.69,.18-.18-.04-.26-.19-.29-.35,.02,.11,.03-.08-.01,.03,.03-.07,.05-.08,.1-.13,.06-.05,.04-.01-.04,0,.19,.05,.37,.1,.56,.15-.03-.03-.06-.06-.09-.1,.05,.15,.07,.18,.06,.11-.02,.07-.04,.13-.05,.2l-.16,.12c-.08-.01-.15-.02-.23-.03,0-.01-.02-.02-.03-.03,0-.07-.02-.13-.03-.2,.01-.02,.02-.04,.04-.06-.15,.14-.03,.42,.17,.41h0Z"/>
        </g>
      </g>
    </g>
  </g>
</svg>