<?xml version="1.0" encoding="UTF-8"?>
<svg id="_Шар_2" data-name="Шар 2" xmlns="http://www.w3.org/2000/svg" viewBox="0 0 89.78 102.88">
  <defs>
    <style>
      .cls-1 {
        fill: #2c262e;
      }

      .cls-2, .cls-3 {
        fill: #fff;
      }

      .cls-4 {
        fill: #ceebe7;
      }

      .cls-3 {
        opacity: .56;
      }

      .cls-5 {
        fill: #4d4d4d;
      }

      .cls-6 {
        fill: #e6e6e6;
      }

      .cls-7 {
        fill: gray;
      }

      .cls-8 {
        opacity: .26;
      }

      .cls-9 {
        fill: #7a898c;
      }

      .cls-10 {
        fill: #b3b3b3;
      }

      .cls-11 {
        fill: #ed1c24;
      }

      .cls-12 {
        fill: #f2f2f2;
      }

      .cls-13 {
        fill: #bcd6d3;
      }
    </style>
  </defs>
  <g id="_Шар_1-2" data-name="Шар 1">
    <g>
      <rect class="cls-5" width="89.78" height="102.88"/>
      <rect class="cls-12" x="1.27" y="1.27" width="87.23" height="100.33"/>
      <path class="cls-3" d="M5.44,11.62s12.33-4.19,14.35-4.62c2.02-.43,20.56,2.95,20.56,2.95,0,0-2.63,23.19-2.64,26.28,0,3.09,5.77,56.2,5.77,56.2,0,0-16.17,3.45-19.64,4.31-3.47,.85-15.03,0-15.03,0L5.44,11.62Z"/>
      <g>
        <path class="cls-1" d="M17.79,63.82v27.78c0,1.2,.98,2.18,2.18,2.18h8.39c1.35,0,2.38-1.22,2.15-2.55l-6.14-27.41h-6.58Z"/>
        <path class="cls-13" d="M17.79,14.26V57.39h7.33s2.6-7.53,2.84-16.04c.19-6.71-6.24-21.43-8.97-27.36-.28-.61-1.2-.41-1.2,.27Z"/>
        <path class="cls-5" d="M19.86,66.81c1.63,.07,3.83,1.13,5.67,2.19l-1.16-5.19h-6.58v3.27c.68-.19,1.38-.31,2.07-.27Z"/>
        <path class="cls-4" d="M24.26,26.55c.56,8.39,.67,18.1-1.38,21.77-1.29,2.3-3.16,4.31-5.08,5.96v3.11h7.33s2.6-7.53,2.84-16.04c.1-3.53-1.64-9.28-3.7-14.8Z"/>
        <path class="cls-9" d="M17.57,57.15h8.17c.53,0,.96,.43,.96,.96v5.81c0,.53-.43,.96-.96,.96h-8.17c-.53,0-.96-.43-.96-.96v-5.81c0-.53,.43-.96,.96-.96Z"/>
        <g>
          <path class="cls-6" d="M18.28,60.37c-.48,.3-.63,.94-.33,1.43,.3,.48,.94,.63,1.43,.33,.48-.3,.63-.94,.33-1.43-.3-.48-.94-.63-1.43-.33Z"/>
          <path class="cls-10" d="M17.83,61.51c.03,.1,.07,.19,.12,.28s.13,.17,.2,.23l1.68-1.05c-.03-.1-.07-.19-.12-.28-.06-.09-.13-.17-.2-.23l-1.68,1.05Z"/>
        </g>
        <g>
          <path class="cls-6" d="M23.36,60.37c-.48,.3-.63,.94-.33,1.43s.94,.63,1.43,.33c.48-.3,.63-.94,.33-1.43-.3-.48-.94-.63-1.43-.33Z"/>
          <path class="cls-10" d="M22.91,61.51c.03,.1,.07,.19,.12,.28,.06,.09,.13,.17,.2,.23l1.68-1.05c-.03-.1-.07-.19-.12-.28-.06-.09-.13-.17-.2-.23l-1.68,1.05Z"/>
        </g>
        <path class="cls-11" d="M21.55,19.78c-1,2.11-2.6,4.5-1.72,6.77,.88,2.27,3.64,1.89,3.05,4.6-.59,2.71-3.38,2.36-3.01,5.37,.37,3.01,7.62-1.24,6.83,2.7-.51,2.56-.36,8.94-.19,13.08,.66-2.92,1.33-6.82,1.45-10.95,.14-5.04-3.46-14.62-6.41-21.58Z"/>
        <path class="cls-11" d="M24.77,38.91c-.8-.25-2.39,.08-3.02,.57-.8,.63-1.16,1.97-.18,2.58,.5,.31,1.38,.37,1.88,.06,.46-.28,.46-.83,.8-1.17,.47-.47,1.25-.39,1.38-1.18,.12-.76-.45-.88-.87-.87Z"/>
        <path class="cls-11" d="M24.41,43.32c-.59,.85-3.36,1.13-2.92,2.48,.5,1.53,2.23,.23,2.8-.4,.55-.61,1.63-2.14,.12-2.09Z"/>
        <path class="cls-5" d="M30.51,91.23l-.2-.9c-2.16-.54-4.68-1.58-7.44-3.48-2.39-1.65-4-3.75-5.08-5.92v10.68c0,1.2,.98,2.18,2.18,2.18h8.39c1.35,0,2.38-1.22,2.15-2.55Z"/>
      </g>
      <path class="cls-3" d="M38.93,22.9s-4.67,34.24-8.69,37.09c-4.02,2.85-15.89,10.41-15.89,10.41l17.16,6.94,11.97,15.07-5.77-56.2,1.22-13.31Z"/>
      <path class="cls-3" d="M40.11,12.09s-17.96-2.2-19.57-2.66S5.44,14.09,5.44,14.09v-2.47l14.35-4.62,20.56,2.95-.24,2.15Z"/>
      <path class="cls-3" d="M5.44,16.86s6.02,16.27,8.91,17.55c2.89,1.28,14.56,3.92,14.56,3.92l-14.56,18.06-5.99,28.91L5.44,16.86Z"/>
      <polygon class="cls-4" points="40.11 12.09 18.53 9.42 5.44 14.09 5.44 15.41 18.53 11.59 39.89 14.09 40.11 12.09"/>
      <rect class="cls-5" x="46.13" y="11.07" width="39.01" height="2.07"/>
      <rect class="cls-5" x="46.13" y="15.57" width="39.01" height="2.07"/>
      <rect class="cls-5" x="46.13" y="20.07" width="39.01" height="2.07"/>
      <rect class="cls-5" x="46.13" y="24.57" width="39.01" height="2.07"/>
      <rect class="cls-5" x="46.13" y="29.07" width="39.01" height="2.07"/>
      <rect class="cls-5" x="46.13" y="33.57" width="39.01" height="2.07"/>
      <rect class="cls-5" x="46.13" y="38.07" width="39.01" height="2.07"/>
      <rect class="cls-5" x="46.13" y="42.58" width="39.01" height="2.07"/>
      <path class="cls-7" d="M47.8,48.86h35.66c.92,0,1.67,.75,1.67,1.67v25.44c0,.92-.75,1.67-1.67,1.67H47.8c-.92,0-1.67-.75-1.67-1.67v-25.44c0-.92,.75-1.67,1.67-1.67Z"/>
      <g class="cls-8">
        <path class="cls-2" d="M65.8,1.27C50.19,11.56,21.76,30.28,1.27,43.77v24.92L80.25,1.27h-14.45Z"/>
        <polygon class="cls-2" points="88.51 46.41 88.51 25.81 1.27 95.6 1.27 101.6 31.16 101.6 88.51 46.41"/>
      </g>
    </g>
  </g>
</svg>