<?xml version="1.0" encoding="UTF-8"?>
<svg xmlns="http://www.w3.org/2000/svg" viewBox="0 0 145.88 79.77">
  <defs>
    <style>
      .cls-1 {
        fill: #7ab36e;
      }

      .cls-2 {
        isolation: isolate;
      }

      .cls-3 {
        fill: #333;
      }

      .cls-4 {
        fill: #fffbf7;
      }

      .cls-5 {
        fill: #4b89b8;
      }

      .cls-6 {
        fill: #9dc4c1;
      }

      .cls-7 {
        fill: #f2f2f2;
      }

      .cls-7, .cls-8, .cls-9 {
        mix-blend-mode: multiply;
      }

      .cls-8 {
        opacity: .24;
      }

      .cls-8, .cls-9 {
        fill: #666;
      }

      .cls-9 {
        opacity: .26;
      }

      .cls-10 {
        fill: #474747;
      }

      .cls-11 {
        fill: #c7d6d4;
      }

      .cls-12 {
        fill: #bcd6d3;
      }
    </style>
  </defs>
  <g class="cls-2">
    <g id="_Шар_2" data-name="Шар 2">
      <g id="_Шар_1-2" data-name="Шар 1">
        <g>
          <g>
            <path class="cls-9" d="M31.47,0c1.27,.18,33.26,3.27,33.26,3.27L103.43,0h40.74l1.71,31.47v17.44l-.36,29.5-2.08,1.36-90.35-2.61-19.73-2.91-18.97,2.59-13.98-.61-.41-1.34L31.47,0Z"/>
            <polygon class="cls-4" points="1.71 1.95 31.47 0 66.35 4.88 103.43 0 144.17 0 144.17 31.47 145.88 51.47 143.44 79.77 116.12 77.82 56.6 75.87 32.93 70.99 14.39 76.84 0 74.89 2.2 36.35 1.71 1.95"/>
            <polygon class="cls-11" points="6.35 5.85 6.35 37.81 3.9 70.75 13.91 73.19 32.45 66.84 57.82 71.72 113.92 73.19 139.54 76.11 142.22 53.18 140.27 36.35 141 3.9 105.39 3.9 65.62 10 31.47 3.9 6.35 5.85"/>
            <path class="cls-5" d="M78.87,52.58c-6.86-1.13-14.66-.61-21.29-2.8-3.31-1.09-3.99-3.8-4.13-6.85,.71-5.37,6.7-7.91,11.29-10.63,5.48-3.24,9.11-7.7,9.89-14.25,.39-3.24-.05-6.33-.28-9.38l-4.21,.65c-.18,3.61-.47,7.46-2.38,10.41-2.88,4.45-7.53,8.11-11.93,10.93-.72,.46-1.42,.97-2.1,1.5-.34-.8-.91-1.61-1.83-2.46-2.82-2.61-7.06-4.18-9.58-7-1.65-1.85-2.46-4.53-4.04-6.53-1.76-2.23-4.04-3.57-6.07-5.52-2.34-2.25-2.7-4.4-2.47-6.6l-7.39,.57c-.83,2.26-1.32,4.56-1.19,5.7,.51,4.52,5.15,7.23,8.7,9.06,6.51,3.36,8.74,8.55,8.15,15.77-.71,8.69-4.64,15.8,3.8,22.19,2.26,1.71,4.97,2.29,7.47,3.52,2.54,1.25,4.67,2.96,7.32,4.03,4.99,2.02,10.57,2.01,14.86,5.56,.65,.54,1.27,1.1,1.86,1.68l31.05,.81c-1.17-3.35-3.18-6.39-5.15-9.4-4.51-6.88-12.56-9.67-20.37-10.96Z"/>
            <path class="cls-12" d="M70.15,9.31l3.73-.57-3.73,.57Z"/>
            <path class="cls-12" d="M56.61,64.88c-2.65-1.07-4.78-2.78-7.32-4.03-2.5-1.24-5.2-1.81-7.47-3.52-8.44-6.39-4.51-13.5-3.8-22.19,.59-7.22-1.64-12.41-8.15-15.77-3.55-1.83-8.18-4.54-8.7-9.06-.13-1.11,.34-3.32,1.13-5.53l-.02-.16-15.94,1.24v31.96l-2.44,32.93,10,2.44,18.54-6.34,25.37,4.88,15.52,.4c-.6-.58-1.22-1.14-1.86-1.68-4.29-3.56-9.88-3.54-14.86-5.56Z"/>
            <path class="cls-1" d="M31.47,3.9l-1.82,.14h.11c-.23,2.19,.13,4.34,2.47,6.59,2.03,1.95,4.31,3.29,6.07,5.52,1.58,2,2.39,4.68,4.04,6.53,2.52,2.82,6.75,4.4,9.58,7,.91,.84,1.49,1.65,1.83,2.46,.68-.54,1.38-1.04,2.1-1.5,4.4-2.82,9.05-6.49,11.93-10.93,1.91-2.95,2.19-6.8,2.38-10.41l-4.52,.69L31.47,3.9Z"/>
            <path class="cls-4" d="M142.22,37.91v-2.15h-21.89V10.91l10.28-.59V2.2h-2.15v6.1l-18.58,1.06V1.12h-6.57v15.9l-13.68,.87V3.7l-5.81-.92v29.96l-23.58,3.61-2.15,5.02h-26.03v-11.22h-9.98l-2.86-18.54H6.35v2.15h11.03l1.17,7.56-14.71,.97,.14,2.15,6.79-.45,1.33,50.44,2.15-.06-.28-10.72,11.61-1.22-3.23-30.13h7.55v11.22h29.6l2.24-5.23,12.64-1.93,9.12,13.96-25.92,24.21,1.46,1.58,26.28-24.54h28.09l1.64,24.61,2.15-.14-.82-12.27h16.64l.33,13.59,2.15-.05-.33-13.54h7.06v-2.15h-7.11l-.57-23.7h7.68ZM13.91,61.5l-1-37.65,5.96-.39,1.22,7.91,3.12,29.15-9.3,.98Zm108.21-23.59v11.51h-19.05l-1.63-19.56h16.75v8.05h3.94ZM87.48,5.54v14.64l17.99-1.14V3.27h2.26V11.63l10.46-.6V27.71h-32.21V5.3l1.51,.24Zm-1.51,29.05v-4.73h13.3l1.63,19.56h-15.43l-8.76-13.42,9.25-1.42Zm46.99,27.03h-16.73l-.67-10.04h8.71v-13.66h8.12l.57,23.7Z"/>
            <path class="cls-1" d="M99.99,38.49s-5.5,2.66-5.67,5.26c-.16,2.6-2.28,5.67-2.28,5.67h8.86l-.91-10.94Z"/>
            <polygon class="cls-1" points="132.39 37.91 124.27 37.91 124.27 51.57 115.56 51.57 116.23 61.61 132.96 61.61 132.39 37.91"/>
            <polygon class="cls-1" points="18.87 23.46 12.91 23.85 13.91 61.5 23.21 60.52 18.87 23.46"/>
            <polygon class="cls-6" points="16.1 15.49 16.1 20.17 6.35 20.98 6.51 14.8 16.1 15.49"/>
            <polygon class="cls-6" points="23.21 33.5 28.14 33.5 27.65 42.48 24.4 42.48 23.21 33.5"/>
            <polygon class="cls-6" points="87.01 21.63 87.01 26.35 116.28 26.35 116.28 20.98 87.01 21.63"/>
            <rect class="cls-6" x="107.18" y="13.01" width="8.39" height="5.69"/>
            <rect class="cls-6" x="122.12" y="12.2" width="8.64" height="3.66"/>
            <polygon class="cls-6" points="122.12 17.89 122.12 34.8 127.67 34.8 127.67 18.03 122.12 17.89"/>
            <polygon class="cls-6" points="129.29 28.95 129.29 34.15 140.32 34.15 140.44 28.95 129.29 28.95"/>
            <polygon class="cls-6" points="100.18 53.18 100.18 55.95 108.15 55.95 108.8 69.12 113.68 69.12 111.78 52.53 100.18 53.18"/>
            <polygon class="cls-6" points="76.72 32.15 82.13 31.55 82.13 15.49 77.74 15.86 76.72 32.15"/>
            <rect class="cls-6" x="104.39" y="44.72" width="16.29" height="3.58"/>
            <path class="cls-7" d="M103.43,0s-13.17,28.14-13.34,31.55c-.16,3.42-33.5,44.32-33.5,44.32l-23.66-4.88s-1.29-31.53-3.29-36.19C27.65,30.15,1.71,1.95,1.71,1.95L31.47,0l34.88,4.88L103.43,0Z"/>
            <polygon class="cls-7" points="144.17 31.47 103.07 49.42 116.12 77.82 143.44 79.77 145.88 51.47 144.17 31.47"/>
          </g>
          <g>
            <circle class="cls-8" cx="141.3" cy="4.27" r="2.57"/>
            <circle class="cls-3" cx="140.61" cy="3.54" r="2.57"/>
            <path class="cls-8" d="M141.74,1.24c.43,.46,.69,1.07,.69,1.75,0,1.42-1.15,2.57-2.57,2.57-.41,0-.79-.1-1.13-.27,.47,.5,1.13,.82,1.87,.82,1.42,0,2.57-1.15,2.57-2.57,0-1.01-.59-1.89-1.44-2.3Z"/>
            <circle class="cls-3" cx="140.61" cy="3.54" r="1.66"/>
            <path class="cls-8" d="M139.22,3.84c0-.91,.74-1.66,1.66-1.66,.42,0,.79,.16,1.08,.41-.3-.43-.79-.71-1.36-.71-.91,0-1.66,.74-1.66,1.66,0,.5,.23,.94,.58,1.25-.19-.27-.3-.59-.3-.95Z"/>
            <path class="cls-10" d="M141.68,2.29c.25,.29,.41,.66,.41,1.07,0,.91-.74,1.66-1.66,1.66-.41,0-.78-.16-1.07-.4,.3,.35,.75,.58,1.25,.58,.92,0,1.66-.74,1.66-1.66,0-.5-.23-.95-.58-1.25Z"/>
            <path class="cls-10" d="M138.24,3.74c0-1.42,1.15-2.57,2.57-2.57,.66,0,1.25,.25,1.71,.66-.47-.53-1.15-.86-1.91-.86-1.42,0-2.57,1.15-2.57,2.57,0,.76,.34,1.44,.86,1.91-.41-.45-.66-1.05-.66-1.71Z"/>
          </g>
          <g>
            <path class="cls-8" d="M4.36,6.47c0,1.42,1.15,2.57,2.57,2.57s2.57-1.15,2.57-2.57-1.15-2.57-2.57-2.57-2.57,1.15-2.57,2.57Z"/>
            <circle class="cls-3" cx="6.24" cy="5.75" r="2.57"/>
            <path class="cls-8" d="M7.37,3.44c.43,.46,.69,1.07,.69,1.75,0,1.42-1.15,2.57-2.57,2.57-.41,0-.79-.1-1.13-.27,.47,.5,1.13,.82,1.87,.82,1.42,0,2.57-1.15,2.57-2.57,0-1.01-.59-1.89-1.44-2.3Z"/>
            <path class="cls-3" d="M4.58,5.75c0,.91,.74,1.66,1.66,1.66s1.66-.74,1.66-1.66-.74-1.66-1.66-1.66-1.66,.74-1.66,1.66Z"/>
            <path class="cls-8" d="M4.86,6.05c0-.91,.74-1.66,1.66-1.66,.42,0,.79,.16,1.08,.41-.3-.43-.79-.71-1.36-.71-.91,0-1.66,.74-1.66,1.66,0,.5,.23,.94,.58,1.25-.19-.27-.3-.59-.3-.95Z"/>
            <path class="cls-10" d="M7.31,4.5c.25,.29,.4,.66,.4,1.07,0,.91-.74,1.66-1.66,1.66-.41,0-.78-.16-1.07-.4,.3,.35,.75,.58,1.25,.58,.92,0,1.66-.74,1.66-1.66,0-.5-.23-.95-.58-1.25Z"/>
            <path class="cls-10" d="M3.87,5.95c0-1.42,1.15-2.57,2.57-2.57,.66,0,1.25,.25,1.71,.66-.47-.53-1.15-.86-1.91-.86-1.42,0-2.57,1.15-2.57,2.57,0,.76,.34,1.44,.86,1.91-.41-.45-.66-1.05-.66-1.71Z"/>
          </g>
          <g>
            <path class="cls-8" d="M137.66,76.23c0,1.42,1.15,2.57,2.57,2.57s2.57-1.15,2.57-2.57-1.15-2.57-2.57-2.57-2.57,1.15-2.57,2.57Z"/>
            <path class="cls-3" d="M136.96,75.51c0,1.42,1.15,2.57,2.57,2.57s2.57-1.15,2.57-2.57-1.15-2.57-2.57-2.57-2.57,1.15-2.57,2.57Z"/>
            <path class="cls-8" d="M140.66,73.2c.43,.46,.69,1.07,.69,1.75,0,1.42-1.15,2.57-2.57,2.57-.41,0-.79-.1-1.13-.27,.47,.5,1.13,.82,1.87,.82,1.42,0,2.57-1.15,2.57-2.57,0-1.01-.59-1.89-1.44-2.3Z"/>
            <path class="cls-3" d="M137.87,75.51c0,.92,.74,1.66,1.66,1.66s1.66-.74,1.66-1.66-.74-1.66-1.66-1.66-1.66,.74-1.66,1.66Z"/>
            <path class="cls-8" d="M138.15,75.8c0-.91,.74-1.66,1.66-1.66,.42,0,.79,.16,1.08,.41-.3-.43-.79-.71-1.36-.71-.92,0-1.66,.74-1.66,1.66,0,.5,.23,.94,.58,1.25-.19-.27-.3-.59-.3-.95Z"/>
            <path class="cls-10" d="M140.61,74.25c.25,.29,.4,.66,.4,1.07,0,.91-.74,1.66-1.66,1.66-.41,0-.78-.16-1.07-.4,.3,.35,.75,.58,1.25,.58,.92,0,1.66-.74,1.66-1.66,0-.5-.23-.95-.58-1.25Z"/>
            <path class="cls-10" d="M137.16,75.71c0-1.42,1.15-2.57,2.57-2.57,.66,0,1.25,.25,1.71,.66-.47-.53-1.15-.86-1.91-.86-1.42,0-2.57,1.15-2.57,2.57,0,.76,.34,1.44,.86,1.91-.41-.45-.66-1.05-.66-1.71Z"/>
          </g>
        </g>
      </g>
    </g>
  </g>
</svg>