<?xml version="1.0" encoding="UTF-8"?>
<svg xmlns="http://www.w3.org/2000/svg" viewBox="0 0 58.59 28.04">
  <defs>
    <style>
      .cls-1 {
        fill: #fff;
      }

      .cls-2 {
        isolation: isolate;
      }

      .cls-3 {
        fill: #666;
        mix-blend-mode: multiply;
        opacity: .26;
      }

      .cls-4 {
        fill: #ed1c24;
      }
    </style>
  </defs>
  <g class="cls-2">
    <g id="_Шар_2" data-name="Шар 2">
      <g id="_Шар_1-2" data-name="Шар 1">
        <g>
          <polygon class="cls-3" points="1.26 1.26 53.1 2.92 58.59 24.77 29.7 28.04 1.26 23.97 1.26 1.26"/>
          <polygon class="cls-1" points="0 0 51.83 1.65 57.33 23.51 28.43 26.78 0 22.7 0 0"/>
          <g>
            <path class="cls-4" d="M9.48,1.64c-.42,2.36-.85,4.71-1.25,7.07-.09,.5-.12,2.6-1.49,1.45-.27-.23-.39-1.32-.49-1.67-.31-1.12-.59-2.24-.87-3.36-.11-.42-.69-.36-.77,.05-1.08,5.78-1.18,11.53,.4,17.19,.08,.29,.56,.21,.49-.1-1.11-4.91-1.46-10.12-.53-15.14,.24,1.2,.53,2.4,.97,3.5,.37,.92,1.27,1.5,2.24,.8,1.06-.76,1.06-2.69,1.26-3.77,.19-1.02,.37-2.04,.56-3.06,.37,2.68,.44,5.39,.52,8.11,.05,1.66,.1,3.31,.23,4.97,.13,1.68,.22,3.49,.88,5.06,.17,.4,.92,.27,.9-.17-.06-1.63-.45-3.26-.59-4.89-.17-1.91-.24-3.84-.31-5.76-.13-3.47-.31-6.95-1.1-10.34-.13-.57-.94-.49-1.04,.06Z"/>
            <path class="cls-4" d="M15.92,12.04c-.03,1.45,0,2.88,.13,4.32,.12,1.41,.11,2.93,.81,4.2,.14,.25,.51,.16,.56-.11,.24-1.35-.16-2.72-.32-4.06-.17-1.46-.33-2.92-.47-4.39-.04-.38-.7-.34-.71,.04Z"/>
            <path class="cls-4" d="M20.93,15.82c-1.19-.53-1.32-1.56-.55-2.55,.23-.29,.5-.57,.8-.8,.17-.11,.34-.22,.51-.33,.05-.02,.09-.05,.13-.07-.09,.2,.2,.45,.38,.26,.51-.54,.43-1.19-.44-1.1-1.28,.13-2.61,1.72-2.91,2.8-.37,1.33,.54,2.22,1.71,2.73,.64,.28,2.02,.41,2.53,.88,.95,.89-1.32,1.81-1.94,2.23-.37,.26-.04,.83,.37,.74,1.18-.24,4.33-2.35,2.65-3.59-.89-.66-2.25-.76-3.26-1.21Z"/>
            <path class="cls-4" d="M27.38,14.67c-.85-.23-1.54-.63-1.62-1.57-.09-1.07,.84-1.78,1.88-1.84,.4-.03,.36-.65-.03-.67-2.23-.09-3.79,2.22-2.37,4.01,.71,.89,1.84,1.05,2.91,1.29,.22,.05,.78,.12,.95,.27,.51,.43,.11,1.01-.2,1.38-.54,.65-1.19,1.16-1.81,1.74-.4,.36,.04,1.11,.55,.8,1.12-.68,4.09-3.1,2.6-4.47-.73-.67-1.94-.68-2.87-.94Z"/>
            <path class="cls-4" d="M31.82,10.08c.15,1.66,.2,3.33,.4,4.99,.18,1.55,.32,3.28,1.01,4.71,.16,.33,.78,.25,.78-.15,0-1.67-.53-3.33-.75-4.98-.2-1.49,.01-3.46-.82-4.77-.19-.3-.65-.15-.62,.2Z"/>
            <path class="cls-4" d="M39.11,9.33c-1.36,.37-2.05,2.69-2.4,3.79-.07,.21-.12,.41-.18,.62-.22-1.34-.48-2.67-.82-4-.09-.37-.69-.26-.62,.12,.45,2.54,.8,5.11,1,7.68,.01,.44,.04,.88,.09,1.32,.07,.57,.95,.38,.91-.18-.01-.19-.03-.38-.04-.57-.07-1.09,0-2.18,.2-3.27,.14-.74,.35-1.48,.62-2.19,.16-.43,.53-1.66,.89-1.87,.35-.2,.98,.02,1.22,.36,.16,.23,.22,.8,.28,1.05,.15,.64,.28,1.28,.39,1.92,.25,1.47,.35,2.94,.43,4.43,.03,.58,.96,.67,.97,.06,.01-2.22-.3-4.44-.84-6.59-.25-.99-.5-3.14-2.1-2.7Z"/>
            <path class="cls-4" d="M51.77,17c-.5-1.27-1.65-2.36-2.03-3.65,.16-.5,.15-1.06-.11-1.68-.19-.46-.81-.22-.9,.17-.12,.57-.09,1.08,.05,1.55-.63,1.15-3.02,1.4-4.17,.92-1.28-.54-1.09-1.96-.36-2.87,.28-.35,.65-.66,1.02-.93,.1-.07,.2-.15,.3-.22,.61-.58,1.27-.54,1.98,.12,.04,.24,.38,.19,.42-.03,.12-.57-.13-1.09-.72-1.31-.8-.29-1.62,.15-2.26,.59-1.43,.97-2.96,2.71-2,4.45,1.1,2,4.65,1.74,6.16,.19,.65,1.23,1.74,2.3,1.88,3.75,.14,1.43-.98,2.34-2.23,2.94-1.43,.69-2.9,1-4.25,.08-.41-.28-.89,.27-.58,.63,1.77,2.06,5.62,.48,7.16-1.19,.93-1.01,1.11-2.26,.63-3.48Z"/>
            <path class="cls-4" d="M32.64,7.33c-.16,.02-.3,0-.46,.06-.12,.05-.24,.12-.36,.17-.26,.12-.51,.24-.78,.34-.47,.18-.21,.92,.28,.8,.32-.08,.64-.17,.94-.29,.14-.06,.3-.11,.42-.2,.14-.1,.21-.24,.32-.37,.21-.25-.08-.57-.36-.53Z"/>
            <path class="cls-4" d="M17.16,9.52c-.78-.09-1.81,.35-2.31,.94-.19,.22,.07,.56,.34,.5,.36-.08,.69-.27,1.04-.38,.37-.12,.72-.2,1.06-.38,.33-.18,.24-.64-.13-.68Z"/>
          </g>
        </g>
      </g>
    </g>
  </g>
</svg>