<?xml version="1.0" encoding="UTF-8"?>
<svg xmlns="http://www.w3.org/2000/svg" viewBox="0 0 44.03 71.85">
  <defs>
    <style>
      .cls-1, .cls-2 {
        fill: #fff;
      }

      .cls-3 {
        isolation: isolate;
      }

      .cls-4 {
        fill: #4d4d4d;
      }

      .cls-5 {
        fill: #4b89b8;
      }

      .cls-6 {
        fill: #666;
        mix-blend-mode: multiply;
        opacity: .46;
      }

      .cls-7 {
        fill: #ff9885;
      }

      .cls-2 {
        opacity: .31;
      }

      .cls-8 {
        opacity: .17;
      }
    </style>
  </defs>
  <g class="cls-3">
    <g id="_Шар_2" data-name="Шар 2">
      <g id="_Шар_1-2" data-name="Шар 1">
        <g>
          <g>
            <path class="cls-6" d="M0,71.85L2.06,12.74l40.96-1.47,1,60.58c-15.01-1.82-29.7-1.91-44.03,0Z"/>
            <polygon class="cls-1" points="1.05 70.45 1.06 11.35 43.02 11.27 43.02 70.45 1.05 70.45"/>
            <polygon class="cls-5" points="41.88 69.31 41.88 12.42 2.2 12.49 2.19 69.31 41.88 69.31"/>
            <path class="cls-4" d="M29.85,42.88s5.62-4.15,6.14-6.4,1.12-9.77,.17-11.76c-.95-1.99-5.45-3.81-6.92-5.45-1.47-1.64-5.36-3.2-8.47-3.03-3.11,.17-4.93-.69-7.96,1.99-3.03,2.68-4.84,3.11-6.4,4.84-1.56,1.73-4.15,2.33-3.2,4.84s2.08,1.04,2.59,5.02c.52,3.98-1.47,5.28,.61,7.18,2.08,1.9,2.59,3.37,4.06,3.55,1.47,.17,4.39,.72,4.39,.72l14.98-1.5Z"/>
            <path class="cls-7" d="M26.82,56.85c-.17-.5-.67-4.65,.17-5.26,.84-.61,2.08-1.75,2.58-2.42s.88-7.99,.88-7.99c0,0,2.31-1.12,2.41-2.8,.17-2.85-2.35-3.02-2.35-3.52,0-.01-.02-.02-.06-.03-.69-1.91-3.08-8.39-3.96-8.46-1.04-.09-4.41,3.11-7.35,3.11s-7-2.94-8.13-1.9c-1.12,1.04-.66,8.1-.66,8.1-.7,.46-1.17,.72-1.17,.72,0,0-1.68,.47-1.68,2.64,0,1.56,1.36,2.41,2.12,2.76,.4,3,1.05,6.28,1.86,7.08,1.51,1.51,2.48,1.64,2.82,2.31s.32,6.76-.69,7.09c-1.01,.34-11.38,3.88-11.38,3.88l-.02,7.17H41.88v-8.51s-14.89-3.45-15.06-3.96Z"/>
            <path class="cls-4" d="M30.45,41.17s-4.32,2.39-5.79,2.65c-1.47,.26-4.06-.61-4.76-.69-.69-.09-3.11,1.56-3.98,1.24-.86-.32-6.32-2.59-6.32-2.59,0,0-.95,6.11-.51,8.01,.43,1.9,4.24,4.06,5.97,4.32,1.73,.26,7.96-.09,10.29,0,2.33,.09,5.79-1.58,6.31-3.47s-1.22-9.47-1.22-9.47Z"/>
            <g class="cls-8">
              <polygon class="cls-1" points="41.88 24.77 41.88 17.39 2.19 57.48 2.19 68.7 41.88 24.77"/>
              <polygon class="cls-1" points="41.88 39.48 41.88 34.31 9.95 69.31 16.46 69.31 41.88 39.48"/>
              <polygon class="cls-1" points="2.2 38 28.62 12.44 2.2 12.49 2.2 38"/>
            </g>
          </g>
          <g>
            <path class="cls-2" d="M15.39,17.72c.56-.48,.85,1.44,1.13,2.39,.85-.96,1.13-2.39,1.41-3.35,.28,.96,.56,2.39,.85,2.87,.85,.96,1.13-1.92,1.69-1.92s.56,1.92,1.13,2.39c.23-.92,.47-1.51,.72-1.9V2.6c-.93-.53-1.65-.83-2.69,1.23,0-.96-.56-2.39-.85-2.39-.85-.96-.85,1.44-1.13,2.39-.85-.96-.85-2.39-1.13-3.83-.56,.96-.85,2.39-1.13,3.83-.78-.89-.36-3.01-.97-3.31V19.39c.07,.22,.12,.45,.12,.72,.56-.96,.28-2.39,.85-2.39Z"/>
            <g>
              <path class="cls-2" d="M16.52,0c-.45,.77-.72,1.84-.96,2.98,.37-.71,.73-1.41,1.1-2.12-.04-.28-.09-.57-.14-.86Z"/>
              <path class="cls-2" d="M14.43,.52V5.17c.27-.52,.54-1.04,.81-1.56-.57-.98-.25-2.81-.81-3.09Z"/>
            </g>
            <path class="cls-2" d="M14.43,16.24v3.15c.07,.22,.12,.45,.12,.72,.56-.96,.28-2.39,.85-2.39,.56-.48,.85,1.44,1.13,2.39,.85-.96,1.13-2.39,1.41-3.35,.28,.96,.56,2.39,.85,2.87,.85,.96,1.13-1.92,1.69-1.92s.56,1.92,1.13,2.39c.23-.92,.47-1.51,.72-1.9V2.6c-.18-.1-.35-.2-.52-.27-2.58,4.41-5.01,9.08-7.37,13.91Z"/>
          </g>
        </g>
      </g>
    </g>
  </g>
</svg>