<?xml version="1.0" encoding="UTF-8"?>
<svg xmlns="http://www.w3.org/2000/svg" viewBox="0 0 52.33 82.77">
  <defs>
    <style>
      .cls-1 {
        opacity: .13;
      }

      .cls-2, .cls-3 {
        fill: #fff;
      }

      .cls-4 {
        isolation: isolate;
      }

      .cls-5 {
        fill: #4d4d4d;
      }

      .cls-6 {
        fill: #4b89b8;
      }

      .cls-7 {
        fill: #666;
        mix-blend-mode: multiply;
        opacity: .46;
      }

      .cls-8 {
        fill: #ff9885;
      }

      .cls-3 {
        opacity: .31;
      }
    </style>
  </defs>
  <g class="cls-4">
    <g id="_Шар_2" data-name="Шар 2">
      <g id="_Шар_1-2" data-name="Шар 1">
        <g>
          <g>
            <polygon class="cls-7" points=".43 74.98 6.11 15.94 52.33 24.76 41.26 82.77 .43 74.98"/>
            <polygon class="cls-2" points="0 73.98 5.68 14.94 51.9 23.76 40.84 81.77 0 73.98"/>
            <polygon class="cls-6" points="40.05 80.61 50.75 24.54 6.56 16.11 1.07 73.18 40.05 80.61"/>
            <path class="cls-5" d="M36.47,50.92s5.18,7.41,1.16,9.87c-4.02,2.45-9.98,3.1-10.66-4.23-.68-7.33-6.31-6.19-6.31-6.19,0,0-2.52,9.51-7.06,9.7s-7.36-4.07-7.21-6.01c.14-1.94,6.39-8.7,6.39-8.7l23.69,5.56Z"/>
            <path class="cls-5" d="M21.59,54.39c-8.47-1.62-14.22-8.93-12.78-16.32,1.03-5.25,2.65-10.38,5.17-11.96,5.72-3.59,12.94,.34,12.94,.34,0,0,8.76-1.59,13.28,2.82,2.01,1.96,2.38,7.52,2.17,13.1-.29,7.71-7.81,13.36-16.57,12.46l-4.21-.43Z"/>
            <path class="cls-8" d="M41.64,72.26s-17.44-7.43-17.51-7.95,.21-4.69,1.15-5.14c.94-.44,5.83-.08,6.45-.65,.62-.57,2.36-7.69,2.36-7.69,0,0,2.48-.67,2.89-2.3,.7-2.77-1.74-3.41-1.65-3.9,.04-.18,.04-.74,.04-.74,0,0-3.51,.54-5.98-2.63-3.04-3.89-2.85-8.63-2.85-8.63,0,0-3.77,4.29-7.04,6.74-2.4,1.8-5.41,2.76-5.41,2.76,0,0-1.74,.15-2.14,2.28-.29,1.54,.89,2.62,1.56,3.11-.17,3.02-.14,6.36,.5,7.31,1.2,1.77,5.32,3.22,5.52,3.94,.2,.72-.36,5.61-1.41,5.75-1.05,.14-16.41,2.01-16.41,2.01l-.64,6.65,38.98,7.44,1.59-8.36Z"/>
            <g class="cls-1">
              <polygon class="cls-2" points="50.75 24.54 47.17 23.86 2.49 58.38 1.07 73.18 1.83 73.32 49.3 32.11 50.75 24.54"/>
              <path class="cls-2" d="M30.45,20.67c-7.47,4.69-17.52,10.97-25.88,16.19l-.67,6.94L36.02,21.73l-5.57-1.06Z"/>
              <polygon class="cls-2" points="43.91 60.38 45.4 52.59 25.31 77.8 29.63 78.62 43.91 60.38"/>
            </g>
          </g>
          <g>
            <path class="cls-3" d="M12.56,1.77c-.4,.27-1.88-1.06-2.28-.79,.24,3.74-1.68,3.49-4.32,2.17,.33,1.33,1.06,2.4,.63,3.47-1.22,1.61-3.34-3.18-3.4-1.58-.46,1.87,.6,4.27,1.66,6.67-.1-.02-.2-.06-.31-.09l12.61,18.46c.01-.09,.03-.19,.05-.28,1.49,1.33,3.4,1.58,4.49,3.18-1.36-4.54,.16-4.01,3.62-4.04-.73-1.06-.3-2.14-.27-2.94q2.67,.52,3.16-2.16c.51,.36,1.09,.83,1.68,1.16L12.82,0c-.2,.45-.31,1.02-.26,1.77Z"/>
            <path class="cls-3" d="M3.2,5.05c-.32,1.3,.1,2.86,.74,4.49,0-1.43,.02-2.85,.04-4.28-.44-.52-.75-.81-.77-.21Z"/>
            <path class="cls-3" d="M28.23,23.85c.51,.36,1.09,.83,1.68,1.16l-2.69-3.94c.06,1.7,.1,3.41,.15,5.11,.47-.23,.59-.89,.86-2.33Z"/>
            <path class="cls-3" d="M12.56,1.77c-.17,.12-.55-.06-.95-.29,.02,1.05,.03,2.11,.05,3.16,.08,5.94,.19,11.89,.31,17.84l3.3,4.83c0-.2-.01-.4-.02-.59-.19-7.2-.35-14.39-.49-21.57-.01-.79-.03-1.58-.04-2.36l-1.91-2.79c-.2,.45-.31,1.02-.26,1.77Z"/>
          </g>
        </g>
      </g>
    </g>
  </g>
</svg>