<?xml version="1.0" encoding="UTF-8"?>
<svg xmlns="http://www.w3.org/2000/svg" viewBox="0 0 51.35 73.04">
  <defs>
    <style>
      .cls-1, .cls-2 {
        fill: #fff;
      }

      .cls-3 {
        isolation: isolate;
      }

      .cls-4 {
        fill: #4d4d4d;
      }

      .cls-5 {
        fill: #4b89b8;
      }

      .cls-6 {
        opacity: .14;
      }

      .cls-7 {
        fill: #666;
        mix-blend-mode: multiply;
        opacity: .46;
      }

      .cls-8 {
        fill: #ff9885;
      }

      .cls-2 {
        opacity: .31;
      }
    </style>
  </defs>
  <g class="cls-3">
    <g id="_Шар_2" data-name="Шар 2">
      <g id="_Шар_1-2" data-name="Шар 1">
        <g>
          <g>
            <polygon class="cls-7" points="0 13.05 51.35 13.05 47.27 71.72 2.27 73.04 0 13.05"/>
            <polygon class="cls-1" points="0 12.24 51.35 12.24 47.27 70.92 3.58 72.2 0 12.24"/>
            <polygon class="cls-5" points="1.15 13.33 4.6 71.08 46.26 69.86 50.19 13.33 1.15 13.33"/>
            <path class="cls-4" d="M45.99,33.56c.91-2.73-.63-5.26-2.57-7.15-.88-.86-1.92-2.18-2.99-2.76-1.38-.75-3-.38-4.49-.49-2.37-.17-2.56-2.91-4.32-4.31-2.77-2.2-6.07-1.78-8.88,.12-.55,.37-1.28,1.6-1.81,1.79-.32,.11-.81-.14-1.2-.17-2.56-.18-5.03,.58-6.46,2.81-1.59,2.49-2.41,4.38-5.13,5.9-2.14,1.19-4.04,3.41-3.44,6.15,.23,1.08,1.04,1.95,.94,3.1-.12,1.42-1.45,2.53-1.92,3.84-1.11,3.09,.82,4.52,1.57,7.34,.57,2.13-.78,4.16-.15,6.22,.51,1.69,2.32,2.87,3.49,4.09,.71,.74,3.64,1.71,4.63,2.05,1.05,.36,0,0,.94-.41,1.23-.54,1.96-.63,3.29-.66,2.15-.04,4.24-.16,6.4,0,2.56,.19,4.32,.06,6.73-.76,1.81-.61,3,.84,4.65,.14l3.07,.74c-1.24-1.82,1.63-3.27,2.9-3.82,2.58-1.11,2.51-2.59,1.49-5.06-1.06-2.57-.68-3.73,1.11-5.88,1.83-2.21,2.29-3.51,1.47-6.29-.27-.93-.81-2.03-.71-3.03,.12-1.19,1.01-2.36,1.38-3.49Z"/>
            <path class="cls-8" d="M26.17,51.68s4.18,0,6.88-1.35c2.7-1.35,1.97-14.38,1.97-14.38,0,0-6.15,.61-9.71-1.6-3.56-2.21-4.3-5.16-4.3-5.16l-5.41,8.6s-4.18-2.21-4.92,.86c-.74,3.07,4.42,3.56,4.42,3.56,0,0-.25,5.9,1.97,7.87,2.21,1.97,3.69,.86,3.81,1.6,.12,.74,.12,6.02-.25,6.27-.25,.17-5.18,1.33-8.37,2.08-1.55,.36-2.6,1.8-2.48,3.38l.9,7.49,30.44-.89s.44-10.02-.35-10.84c-1.77-1.85-12.66-.61-13.15-1.23-.49-.61-1.97-5.28-1.47-6.27Z"/>
            <g class="cls-6">
              <g>
                <polygon class="cls-1" points="47.14 57.22 37.8 70.11 46.26 69.86 47.14 57.22"/>
                <polygon class="cls-1" points="49.64 21.17 4.23 64.97 4.6 71.08 9.72 70.93 48.95 31.12 49.64 21.17"/>
                <path class="cls-1" d="M2.27,32.14l1.05,17.64L45.81,13.33H26.33c-7.23,5.62-17.21,13.44-24.06,18.81Z"/>
              </g>
            </g>
          </g>
          <g>
            <path class="cls-2" d="M23.96,17.72c.56-.48,.85,1.44,1.13,2.39,.85-.96,1.13-2.39,1.41-3.35,.28,.96,.56,2.39,.85,2.87,.85,.96,1.13-1.92,1.69-1.92s.56,1.92,1.13,2.39c.23-.92,.47-1.51,.72-1.9V2.6c-.93-.53-1.65-.83-2.69,1.23,0-.96-.56-2.39-.85-2.39-.85-.96-.85,1.44-1.13,2.39-.85-.96-.85-2.39-1.13-3.83-.56,.96-.85,2.39-1.13,3.83-.78-.89-.36-3.01-.97-3.31V19.39c.07,.22,.12,.45,.12,.72,.56-.96,.28-2.39,.85-2.39Z"/>
            <g>
              <path class="cls-2" d="M25.09,0c-.45,.77-.72,1.84-.96,2.98,.37-.71,.73-1.41,1.1-2.12-.04-.28-.09-.57-.14-.86Z"/>
              <path class="cls-2" d="M22.99,.52V5.17c.27-.52,.54-1.04,.81-1.56-.57-.98-.25-2.81-.81-3.09Z"/>
            </g>
            <path class="cls-2" d="M22.99,16.24v3.15c.07,.22,.12,.45,.12,.72,.56-.96,.28-2.39,.85-2.39,.56-.48,.85,1.44,1.13,2.39,.85-.96,1.13-2.39,1.41-3.35,.28,.96,.56,2.39,.85,2.87,.85,.96,1.13-1.92,1.69-1.92s.56,1.92,1.13,2.39c.23-.92,.47-1.51,.72-1.9V2.6c-.18-.1-.35-.2-.52-.27-2.58,4.41-5.01,9.08-7.37,13.91Z"/>
          </g>
        </g>
      </g>
    </g>
  </g>
</svg>