<?xml version="1.0" encoding="UTF-8"?>
<svg xmlns="http://www.w3.org/2000/svg" viewBox="0 0 39.93 17.81">
  <defs>
    <style>
      .cls-1 {
        fill: #fff;
      }

      .cls-2 {
        isolation: isolate;
      }

      .cls-3 {
        fill: #666;
        mix-blend-mode: multiply;
        opacity: .26;
      }

      .cls-4 {
        fill: #ed1c24;
      }
    </style>
  </defs>
  <g class="cls-2">
    <g id="_Шар_2" data-name="Шар 2">
      <g id="_Шар_1-2" data-name="Шар 1">
        <g>
          <polygon class="cls-3" points="2.6 1.26 1.26 14.77 38.07 17.81 39.93 2.48 2.6 1.26"/>
          <polygon class="cls-1" points="1.33 0 0 13.5 36.8 16.55 38.67 1.21 1.33 0"/>
          <g>
            <path class="cls-4" d="M5.97,2.08c-.46,1.57-.6,3.27-.83,4.9-.21,1.5-.54,3.05-.38,4.56,.03,.28,.36,.33,.46,.07,.53-1.41,.6-3,.77-4.5,.19-1.63,.47-3.31,.42-4.95,0-.27-.37-.32-.45-.06h0Z"/>
            <path class="cls-4" d="M8.27,2.67c-.42,1.44-.67,2.92-.9,4.41-.17,1.15-.44,2.34-.24,3.5,.06,.34,.47,.25,.57,0,.45-1.13,.42-2.47,.57-3.67,.17-1.39,.37-2.77,.48-4.16,.02-.3-.41-.34-.49-.07h0Z"/>
            <path class="cls-4" d="M9.27,6.61c.14,.17,.41,.17,.53,.03,.23-.28,.1-.71-.25-.71s-.48,.43-.27,.69h0Z"/>
            <path class="cls-4" d="M10.03,8.63s.01-.02,.02-.04c.06-.15,.03-.29-.1-.39-.08-.06-.19-.06-.25-.01-.15,.1-.18,.25-.12,.4,0,.01,.01,.02,.02,.04,.08,.17,.36,.17,.43,0h0Z"/>
            <path class="cls-4" d="M12.2,1.91c-.66,1.52-.64,3.18-.7,4.82-.07,2.01-.33,4.13-.03,6.13,.06,.36,.62,.34,.69,0,.72-3.5-.2-7.23,.53-10.73,.06-.29-.36-.52-.49-.22h0Z"/>
            <path class="cls-4" d="M15.65,2.89c-.45,.92-1.49,2.39-.62,3.31,.59,.62,1.56,.79,2.19,1.46,2.41,2.59-2.22,3.12-2.31,2.48-.04-.28-.43-.35-.6-.16l-.2,.22c-.16,.18-.18,.42-.08,.63,.49,1,1.49,.72,2.42,.57,1.03-.16,2.26-.5,2.48-1.73,.2-1.08-.52-2.14-1.25-2.84-.48-.46-1.07-.68-1.58-1.07-.87-.68-.19-1.7,.05-2.65,.08-.31-.36-.53-.51-.23h0Z"/>
            <path class="cls-4" d="M15.6,3.36c.67-.23,1.39-.33,2.09-.32,.58,0,1.12,.24,1.66-.03,.22-.11,.21-.42,.07-.58-.46-.54-1.35-.41-1.98-.33-.75,.1-1.39,.39-2.04,.76-.26,.15-.08,.6,.2,.5h0Z"/>
            <path class="cls-4" d="M22.65,6.07c-.22,2.21-.68,4.71-.32,6.91,.06,.37,.64,.36,.71,0,.44-2.19,.14-4.68,.15-6.91,0-.37-.51-.36-.55,0h0Z"/>
            <path class="cls-4" d="M23.53,6.95c.26-.41,1,0,1.25,.18,.32,.23,.63,.63,.52,1.07-.21,.86-1.35,.37-1.87,.72-.19,.13-.27,.45-.08,.62,.51,.45,1.5,.27,2.05-.04,.64-.36,.97-1.1,.78-1.84-.19-.75-.8-1.28-1.49-1.5-.59-.19-1.33-.15-1.61,.51-.14,.32,.26,.57,.45,.28h0Z"/>
            <path class="cls-4" d="M27.09,6.56c-.25,1.3-.33,2.62-.31,3.94,0,.45,.65,.55,.76,.11,.21-.83,.64-2.08,1.36-2.6,.73-.53,.61-.06,.61,.57,0,.54,0,1.07,0,1.61,0,.46,.68,.72,.89,.25,.2-.45,.4-.88,.66-1.3,.17-.27,.35-.54,.54-.79,.19-.03,.24,.1,.12,.4,.17,1.05-.41,2.07-.3,3.1,.03,.3,.4,.56,.63,.27,.57-.7,.63-1.69,.67-2.59,.03-.64,.13-1.66-.37-2.16-1.2-1.18-2.47,1.83-2.78,2.56,.3,.08,.59,.17,.89,.25-.01-.85,.43-3.77-1.09-3.55-1.4,.2-2.32,2.57-2.57,3.77,.25,.04,.51,.07,.76,.11-.07-1.29-.03-2.57,.03-3.87,.01-.29-.44-.36-.49-.07h0Z"/>
          </g>
        </g>
      </g>
    </g>
  </g>
</svg>