<?xml version="1.0" encoding="UTF-8"?>
<svg id="_Шар_2" data-name="Шар 2" xmlns="http://www.w3.org/2000/svg" viewBox="0 0 14.43 11.41">
  <defs>
    <style>
      .cls-1 {
        fill: #ed1c24;
      }
    </style>
  </defs>
  <g id="_Шар_1-2" data-name="Шар 1">
    <g>
      <path class="cls-1" d="M8.14,2.98c-1.64,1.22-3.58,2.61-4.46,4.52-.16,.36,.19,.84,.59,.59,1.72-1.1,3.04-2.86,4.55-4.23,.46-.42-.16-1.26-.68-.88h0Z"/>
      <path class="cls-1" d="M4.72,.11C1.92,1.25-.44,3.95,.07,7.16c.54,3.44,4.74,4.54,7.73,4.19,3.02-.35,6.93-2.7,6.62-6.2C14.04,.93,9.13,.06,5.77,0c-.95-.02-.91,1.36,0,1.45,2.2,.22,5.51,.38,6.61,2.73,1.53,3.26-2.55,5.18-4.92,5.53-2.53,.38-6.08-.36-6.32-3.45C.96,3.82,2.96,1.75,4.96,.68c.3-.16,.09-.7-.24-.56h0Z"/>
      <path class="cls-1" d="M3.27,4.79c2,1.36,4.42,3.28,6.91,3.48,.34,.03,.51-.45,.28-.67-.88-.84-2.04-1.28-3.13-1.79-1.22-.56-2.45-1.12-3.66-1.7-.45-.22-.82,.39-.4,.68h0Z"/>
    </g>
  </g>
</svg>