<?xml version="1.0" encoding="UTF-8"?>
<svg id="_Шар_2" data-name="Шар 2" xmlns="http://www.w3.org/2000/svg" viewBox="0 0 4.94 7.38">
  <defs>
    <style>
      .cls-1 {
        fill: #ed1c24;
      }
    </style>
  </defs>
  <g id="_Шар_1-2" data-name="Шар 1">
    <path class="cls-1" d="M1.05,3.03c-.5-.6-.09-1.49,.52-1.8,.33-.16,.9-.05,1.24,.04,.59,.16,.63,.2,.8,.85,.19,.76,.11,.67-.33,1.25-.87,1.14-1.78,2.29-2.49,3.54-.17,.3,.23,.62,.49,.37,.7-.69,1.34-1.5,1.96-2.28,.51-.65,1.27-1.42,1.58-2.19,.45-1.12-.34-2.17-1.37-2.61C2.47-.2,1.13-.02,.43,.83-.24,1.66-.13,2.81,.76,3.4c.24,.16,.45-.18,.29-.37h0Z"/>
  </g>
</svg>