<?xml version="1.0" encoding="UTF-8"?>
<svg id="_Шар_2" data-name="Шар 2" xmlns="http://www.w3.org/2000/svg" viewBox="0 0 15.9 14.91">
  <defs>
    <style>
      .cls-1 {
        fill: #ed1c24;
      }
    </style>
  </defs>
  <g id="_Шар_1-2" data-name="Шар 1">
    <path class="cls-1" d="M7.19,2.05C3.07,1.83-.63,6.73,.09,10.72c.75,4.12,5.91,4.82,9.23,3.72,3.57-1.18,7.78-4.99,6.26-9.14-.66-1.81-2.37-4.01-4.14-4.87-2.15-1.04-4.4-.06-6.19,1.2-.42,.3-.18,1.07,.38,.89,1.08-.35,2.73-1.18,3.86-1.02,1.9,.26,3.75,2.21,4.49,3.92,1.44,3.33-1.63,6.61-4.63,7.75-2.06,.79-5.76,1.06-7.28-1.01C-.38,8.81,3.42,3,7.19,2.59c.34-.04,.36-.53,0-.55h0Z"/>
  </g>
</svg>