<?xml version="1.0" encoding="UTF-8"?>
<svg id="_Шар_2" data-name="Шар 2" xmlns="http://www.w3.org/2000/svg" viewBox="0 0 12.08 10.79">
  <defs>
    <style>
      .cls-1 {
        fill: #ed1c24;
      }
    </style>
  </defs>
  <g id="_Шар_1-2" data-name="Шар 1">
    <path class="cls-1" d="M7.09,.23C4.23-.82,1.49,2,.38,4.44c-1.22,2.69,.64,5.25,3.26,6.04,2.84,.86,6.27-.06,7.82-2.71,.99-1.69,1.05-5.57-1.81-5.19-.6,.08-.79,.89-.15,1.1,2.93,.95,.55,4.31-.9,5.12-1.66,.92-4.18,.89-5.72-.24-1.94-1.42-1.42-3.4-.06-5.02C3.88,2.28,5.18,.97,6.97,1.09c.52,.04,.55-.7,.12-.86h0Z"/>
  </g>
</svg>