<?xml version="1.0" encoding="UTF-8"?>
<svg xmlns="http://www.w3.org/2000/svg" xmlns:xlink="http://www.w3.org/1999/xlink" viewBox="0 0 307.11 232.63">
  <defs>
    <style>
      .cls-1 {
        fill: #2c262e;
      }

      .cls-2 {
        opacity: .18;
      }

      .cls-2, .cls-3 {
        mix-blend-mode: multiply;
      }

      .cls-4 {
        fill: #96a1a3;
      }

      .cls-3 {
        fill: url(#linear-gradient-2);
        opacity: .51;
      }

      .cls-5 {
        isolation: isolate;
      }

      .cls-6 {
        opacity: .22;
      }

      .cls-7 {
        fill: #7a898c;
      }

      .cls-8, .cls-9 {
        fill: #544957;
      }

      .cls-9 {
        opacity: .21;
      }

      .cls-10 {
        fill: url(#linear-gradient);
        mix-blend-mode: overlay;
        opacity: .35;
      }
    </style>
    <linearGradient id="linear-gradient" x1="48.44" y1="177.49" x2="278.23" y2="47.85" gradientUnits="userSpaceOnUse">
      <stop offset="0" stop-color="#fff"/>
      <stop offset=".15" stop-color="#c6c6c6"/>
      <stop offset=".32" stop-color="#8a8a8a"/>
      <stop offset=".48" stop-color="#595959"/>
      <stop offset=".64" stop-color="#323232"/>
      <stop offset=".78" stop-color="#161616"/>
      <stop offset=".91" stop-color="#050505"/>
      <stop offset="1" stop-color="#000"/>
    </linearGradient>
    <linearGradient id="linear-gradient-2" x1="14.94" y1="217.03" x2="280.26" y2="26.54" gradientUnits="userSpaceOnUse">
      <stop offset="0" stop-color="#fff"/>
      <stop offset="1" stop-color="#000"/>
    </linearGradient>
  </defs>
  <g class="cls-5">
    <g id="_Шар_2" data-name="Шар 2">
      <g id="Layer_2" data-name="Layer 2">
        <g>
          <rect class="cls-2" x="3" width="304.11" height="228.08"/>
          <g>
            <rect class="cls-1" x=".04" y="4.54" width="304.11" height="228.08"/>
            <rect class="cls-4" x="10.14" y="14.52" width="283.91" height="208.14"/>
            <rect class="cls-8" x="10.14" y="4.54" width="283.91" height="9.97"/>
            <rect class="cls-8" x="10.14" y="222.66" width="283.91" height="9.97"/>
            <g>
              <path class="cls-7" d="M294.05,10.24c-9.19,.71-30.15,.82-37.24,.28-4.14-.32-8.34-.14-12.4,.03-3.61,.15-7.34,.31-11.02,.12-4.25-.22-8.47,.22-12.55,.65-2.59,.27-5.27,.55-7.94,.66-6.78,.28-13.82-.37-20.63-.99-1.75-.16-3.48-.32-5.2-.46-9.9-.82-19.44-.5-30.03,.99-6.84,.96-13.77,.69-20.48,.42-3.23-.13-6.56-.26-9.87-.26-3.36,.01-6.76-.32-10.06-.64-4.15-.4-8.44-.82-12.68-.57-4.05,.24-8.38,.61-13.26,1.15-1.3,.14-2.6,.36-3.85,.58-2.73,.47-5.31,.91-8.03,.63-3.11-.31-6.1-1.01-9-1.7-1.78-.42-3.61-.85-5.47-1.19-3.32-.61-6.76-.47-10.1-.34-3.04,.12-6.19,.25-9.2-.2-4.55-.68-8.83-.29-13.36,.12-1.5,.14-3.04,.28-4.59,.37-.67,.04-1.37,.08-2.08,.12-4.62,.27-10.14,.59-14.86,1.74v.52c4.7-1.16,10.25-1.48,14.89-1.76,.71-.04,1.41-.08,2.08-.12,1.56-.1,3.11-.24,4.61-.37,4.5-.41,8.75-.79,13.24-.12,3.06,.46,6.23,.33,9.29,.21,3.31-.13,6.72-.27,9.98,.33,1.85,.34,3.68,.77,5.45,1.19,2.91,.69,5.93,1.39,9.07,1.71,2.79,.28,5.52-.19,8.17-.64,1.25-.21,2.53-.43,3.82-.57,4.87-.54,9.2-.91,13.23-1.15,4.2-.25,8.47,.17,12.6,.57,3.31,.32,6.72,.63,10.11,.65,3.29,0,6.62,.13,9.85,.26,6.73,.27,13.68,.54,20.57-.42,10.55-1.48,20.06-1.8,29.92-.98,1.72,.14,3.45,.3,5.2,.46,6.83,.62,13.88,1.27,20.7,.99,2.68-.11,5.37-.39,7.97-.66,4.06-.42,8.26-.86,12.47-.64,3.7,.19,7.45,.03,11.07-.12,4.04-.17,8.23-.35,12.34-.03,4.47,.34,27.19,.58,37.28-.29v-.5Z"/>
              <path class="cls-7" d="M106.53,6.4c2.98,.69,5.93,1.2,8.9,1.59-2.9-.15-5.06-.28-5.76-.35-3.74-.37-7.5,.1-11.14,.56-3.52,.44-7.16,.9-10.79,.6-6.48-.54-13.1-.66-19.5-.76-4.18-.07-8.51-.15-12.77-.34-4.78-.22-9.74,0-14.52,.21-2.4,.1-4.88,.21-7.29,.26-1.83,.04-3.68-.01-5.46-.07-2.52-.07-5.12-.15-7.71,.03-1.79,.12-3.66,.35-5.47,.56-1.61,.19-3.24,.38-4.86,.51v.51c1.65-.13,3.3-.32,4.92-.52,1.8-.22,3.66-.44,5.44-.56,2.57-.18,5.16-.1,7.66-.03,1.79,.05,3.65,.11,5.49,.07,2.42-.05,4.9-.16,7.3-.26,4.78-.21,9.72-.43,14.48-.21,4.27,.19,8.6,.27,12.78,.34,6.39,.11,13,.22,19.47,.76,3.68,.31,7.35-.15,10.9-.6,3.61-.45,7.34-.92,11.02-.56,2.91,.29,29.85,1.62,33.05,.72,1.45-.04,2.91-.09,4.4-.14,14.15-.49,28.5-.23,42.37,.02,6.15,.11,12.51,.22,18.78,.27,.21,0,.43,0,.64,0,4.12,0,8.26-.29,12.28-.58,4.04-.29,8.2-.59,12.34-.58,.98,0,1.95,0,2.93,.01,3.99,.02,8.07,.03,12.15-.18,.68,.61,2.83,.81,5.72,.81,2.18,0,4.78-.11,7.48-.25,1.75-.09,3.12-.16,3.7-.13,7,.38,14.18,.26,21.13,.14,2.46-.04,4.97-.08,7.48-.1v-.51c-2.51,.02-5.03,.06-7.49,.1-6.94,.12-14.12,.24-21.1-.14-.6-.03-1.99,.04-3.75,.13-3.62,.18-9.93,.5-12.15-.11,1.36-.08,2.72-.19,4.07-.34,6.35-.7,12.65-1.61,19.08-2.76h-2.95c-5.43,.92-10.79,1.67-16.18,2.26-5.71,.63-11.54,.6-17.18,.57-.98,0-1.95,0-2.93-.01h-.12c-4.11,0-8.25,.29-12.26,.58-4.21,.3-8.57,.61-12.88,.58-6.27-.05-12.63-.16-18.78-.27-13.88-.25-28.22-.51-42.39-.02-14.97,.51-27.45,.67-40.4-2.32-2.89-.67-5.82-1.09-8.77-1.36h-9.95c6.2,.14,12.51,.45,18.61,1.86Z"/>
              <path class="cls-7" d="M10.14,4.88v.52c2.91-.53,6.04-.65,8.92-.75,.81-.03,1.6-.06,2.37-.09,.07,0,.14,0,.2-.01H12.51c-.8,.09-1.59,.2-2.38,.34Z"/>
            </g>
            <g>
              <path class="cls-7" d="M10.14,228.38c9.18,.71,30.15,.82,37.24,.28,4.14-.32,8.34-.14,12.4,.03,3.61,.15,7.34,.31,11.02,.12,4.25-.22,8.47,.22,12.55,.65,2.59,.27,5.27,.55,7.94,.66,6.78,.28,13.82-.37,20.63-.99,1.75-.16,3.48-.32,5.2-.46,9.9-.82,19.44-.5,30.03,.99,6.84,.96,13.77,.69,20.48,.42,3.23-.13,6.56-.25,9.87-.26,3.36,.01,6.76-.32,10.06-.64,4.15-.4,8.44-.82,12.68-.57,4.05,.24,8.38,.61,13.26,1.15,1.3,.14,2.6,.36,3.85,.58,2.73,.47,5.31,.91,8.03,.63,3.11-.31,6.1-1.01,9-1.7,1.78-.42,3.61-.85,5.47-1.19,3.32-.61,6.76-.47,10.1-.34,3.04,.12,6.19,.25,9.2-.2,4.55-.68,8.83-.29,13.36,.12,1.5,.14,3.04,.28,4.59,.37,.67,.04,1.37,.08,2.08,.12,4.62,.27,10.14,.59,14.86,1.74v.52c-4.7-1.16-10.25-1.48-14.89-1.76-.71-.04-1.41-.08-2.08-.12-1.56-.1-3.11-.24-4.61-.37-4.5-.41-8.75-.79-13.24-.12-3.06,.46-6.23,.33-9.29,.21-3.31-.13-6.72-.27-9.98,.33-1.85,.34-3.68,.77-5.45,1.19-2.91,.69-5.93,1.39-9.07,1.71-2.79,.28-5.52-.19-8.17-.64-1.25-.21-2.53-.43-3.82-.57-4.87-.54-9.2-.91-13.23-1.15-4.2-.25-8.47,.17-12.6,.57-3.31,.32-6.72,.63-10.11,.65-3.29,0-6.62,.13-9.85,.26-6.73,.27-13.68,.54-20.57-.42-10.55-1.48-20.06-1.8-29.92-.98-1.72,.14-3.45,.3-5.2,.46-6.83,.62-13.88,1.27-20.7,.99-2.68-.11-5.37-.39-7.97-.66-4.06-.42-8.26-.86-12.47-.64-3.7,.19-7.45,.03-11.07-.12-4.04-.17-8.23-.35-12.34-.03-4.47,.34-27.19,.58-37.28-.29v-.5Z"/>
              <path class="cls-7" d="M197.65,224.54c-2.98,.69-5.93,1.2-8.9,1.59,2.9-.15,5.06-.28,5.76-.35,3.74-.37,7.5,.1,11.14,.56,3.52,.44,7.16,.9,10.79,.6,6.48-.54,13.1-.66,19.5-.76,4.18-.07,8.51-.15,12.77-.34,4.78-.22,9.74,0,14.52,.21,2.4,.1,4.88,.21,7.29,.26,1.83,.04,3.68-.01,5.46-.07,2.52-.07,5.12-.15,7.71,.03,1.79,.12,3.66,.35,5.47,.56,1.61,.19,3.24,.38,4.86,.51v.51c-1.65-.13-3.3-.32-4.92-.52-1.8-.22-3.66-.44-5.44-.56-2.57-.18-5.16-.1-7.66-.03-1.79,.05-3.65,.11-5.49,.07-2.42-.05-4.9-.16-7.3-.26-4.78-.21-9.72-.43-14.48-.21-4.27,.19-8.6,.27-12.78,.34-6.39,.11-13,.22-19.47,.76-3.68,.31-7.35-.15-10.9-.6-3.61-.45-7.34-.92-11.02-.56-2.91,.29-29.85,1.62-33.05,.72-1.45-.04-2.91-.09-4.4-.14-14.15-.49-28.5-.23-42.37,.02-6.15,.11-12.51,.22-18.78,.27-.21,0-.43,0-.64,0-4.12,0-8.26-.29-12.28-.58-4.04-.29-8.2-.59-12.34-.58-.98,0-1.95,0-2.93,.01-3.99,.02-8.07,.03-12.15-.18-.68,.61-2.83,.81-5.72,.81-2.18,0-4.78-.11-7.48-.25-1.75-.09-3.12-.16-3.7-.13-7,.38-14.18,.26-21.13,.14-2.46-.04-4.97-.08-7.48-.1v-.51c2.51,.02,5.03,.06,7.49,.1,6.94,.12,14.12,.24,21.1-.14,.6-.03,1.99,.04,3.75,.13,3.62,.18,9.93,.5,12.15-.11-1.36-.08-2.72-.19-4.07-.34-6.35-.7-12.65-1.61-19.08-2.76h2.95c5.43,.92,10.79,1.67,16.18,2.26,5.71,.63,11.54,.6,17.18,.57,.98,0,1.95,0,2.93-.01h.12c4.11,0,8.25,.29,12.26,.58,4.21,.3,8.57,.61,12.88,.58,6.27-.05,12.63-.16,18.78-.27,13.88-.25,28.22-.51,42.39-.02,14.97,.51,27.45,.67,40.4-2.32,2.89-.67,5.82-1.09,8.77-1.36h9.95c-6.2,.13-12.51,.45-18.61,1.86Z"/>
              <path class="cls-7" d="M294.05,223.02v.52c-2.91-.53-6.04-.65-8.92-.75-.81-.03-1.6-.06-2.37-.09-.07,0-.14,0-.2-.01h9.12c.8,.09,1.59,.2,2.38,.34Z"/>
            </g>
            <g>
              <path class="cls-7" d="M302.17,218.98c.32-1.82,.63-3.54,.81-5.15,.54-4.77,.17-9.07-.22-13.63-.16-1.85-.32-3.77-.42-5.72-.86-17.19-.35-30.49,1.62-41.87,.07-.43,.13-.86,.19-1.29v-13.99c-.22,2.21-.22,4.47-.22,6.7,0,2.84,0,5.77-.47,8.49-1.98,11.42-2.5,24.76-1.63,41.98,.1,1.96,.26,3.88,.42,5.73,.39,4.53,.76,8.81,.22,13.53-.18,1.59-.48,3.3-.81,5.12-.8,4.5-1.66,9.38-.88,13.73h.52c-.79-4.29,.07-9.16,.86-13.64Z"/>
              <path class="cls-7" d="M304.06,72.36c-1.05-5.38-1.55-10.35-1.73-17.15-.02-.74-.06-1.49-.11-2.23,0-.02,0-.04,0-.04-.16-2.52-.46-5.01-.75-7.44-.43-3.57-.87-7.27-.87-11,0-2.14,.2-4.32,.39-6.42,.27-2.94,.55-5.99,.28-8.95-.17-1.92-.39-3.83-.61-5.67-.35-3.02-.68-5.91-.83-8.9h-.51c.15,3.01,.49,5.92,.84,8.95,.21,1.84,.43,3.74,.6,5.66,.26,2.92-.01,5.94-.28,8.86-.19,2.12-.39,4.31-.39,6.47,0,3.76,.45,7.47,.87,11.06,.29,2.43,.58,4.93,.74,7.44,.16,12.28,.14,30.78-.55,32.16l-.12,.02v.2c-.22,3.64,.31,7.23,.82,10.71,.37,2.53,.75,5.14,.85,7.76,.19,4.98-.64,10.12-1.44,15.1-.24,1.5-.49,3.04-.7,4.54-1.56,10.97-1.45,22.05-1.33,32.77,.02,1.92,.23,3.84,.43,5.71,.27,2.54,.56,5.16,.36,7.76-.14,1.88-.48,3.86-.83,5.95-.62,3.67-1.26,7.46-.85,10.89,.2,1.67,.52,3.29,.83,4.84,.65,3.27,1.26,6.35,.85,9.93-.25,2.15-.73,4.27-1.19,6.33-.44,1.93-.88,3.9-1.14,5.93-2.13-16.99-.99-60.29-.15-92.27,.4-15.19,.72-27.18,.57-32.22-.05-1.73-.15-3.44-.25-5.09-.18-2.95-.35-5.73-.25-8.66,.1-2.96,.36-5.92,.62-8.78,.32-3.64,.66-7.39,.65-11.17v-2.78c0-6.95-.01-13.9,0-20.84,.01-5.52-.78-10.94-1.55-16.19-.53-3.6-1.07-7.31-1.35-11.03h-.51c.28,3.75,.82,7.48,1.35,11.11,.76,5.23,1.56,10.63,1.55,16.11-.01,6.95,0,13.9,0,20.84v2.78c0,3.76-.33,7.51-.65,11.13-.26,2.87-.52,5.84-.62,8.81-.1,2.95,.07,5.74,.25,8.7,.1,1.65,.2,3.35,.25,5.08,.15,5.02-.17,17.01-.57,32.19-.88,33.42-2.09,79.19,.45,94.47-.15,3.03-.09,6.05-.03,8.97,.05,2.68,.11,5.29,0,7.89h.51c.09-2.6,.04-5.22-.01-7.9-.06-2.92-.12-5.94,.03-8.96,.14-2.74,.74-5.41,1.33-8,.47-2.07,.95-4.2,1.2-6.38,.42-3.66-.2-6.78-.86-10.09-.31-1.55-.63-3.15-.82-4.81-.4-3.35,.23-7.11,.85-10.74,.35-2.11,.69-4.1,.83-6,.2-2.65-.09-5.29-.36-7.85-.2-1.85-.41-3.76-.43-5.66-.11-10.7-.23-21.76,1.33-32.69,.21-1.49,.46-3.04,.7-4.53,.81-5,1.64-10.17,1.45-15.2-.1-2.64-.49-5.27-.86-7.81-.5-3.41-1.02-6.94-.83-10.49,.34-.46,.71-2.85,.76-16.42,0-1.83,0-3.66,0-5.4,.28,3.04,.69,5.84,1.26,8.76,.2,1.05,.39,2.11,.58,3.17v-2.8c-.03-.15-.06-.31-.09-.46Z"/>
            </g>
            <path class="cls-7" d="M8.01,17.07c.03,3.34,.07,6.49,.3,8.82,.37,3.74,.23,6.49-.53,10.16-.47,2.26-.44,11.6-.31,20.98-.04-.32-.07-.64-.11-.96-.61-5.43-1.23-11.04-1.11-16.81,.14-6.9-.14-13.89-.42-20.64-.19-4.61-.37-9.36-.43-14.07h-.51c.06,4.72,.24,9.47,.43,14.09,.28,6.75,.56,13.73,.42,20.61-.12,5.81,.51,11.44,1.12,16.88,.25,2.22,.5,4.46,.7,6.73,.02,1.18,.04,2.34,.06,3.46,.09,5.41,.16,9.69,.12,11.09-.09,1.53-.19,3.08-.28,4.66-.41,6.65-.84,13.53-.86,19.82,0,2.48,.12,4.97,.25,7.38,.07,1.43,.15,2.92,.2,4.38,.08,2.58-.4,4.9-.9,7.36-.35,1.71-.72,3.47-.87,5.31-.3,3.63-.75,7.29-1.2,10.84-.22,1.8-.45,3.61-.66,5.44-.67-7.08-.29-17.39,0-25.13,.13-3.43,.24-6.38,.24-8.42,0-2.87,.04-5.78,.08-8.58,.08-5.33,.16-10.83-.07-16.33-.27-6.21-.38-11.89,.97-18.5,.9-4.42,1.4-7.67,.2-12.33-2.76-10.73-2.46-22.35-2.17-33.58,.13-5.01,.26-10.17,.12-15.18h-.51c.15,5,.01,10.15-.12,15.16-.29,11.27-.59,22.93,2.18,33.72,1.17,4.56,.68,7.75-.21,12.11-1.36,6.67-1.24,12.38-.98,18.62,.24,5.48,.15,10.98,.07,16.3-.04,2.81-.09,5.71-.08,8.59,0,2.03-.11,4.98-.23,8.4-.32,8.61-.76,20.38,.26,27.42-.57,5.6-.89,11.31-.37,17.06,1.3,14.23,1.12,27.85-.53,40.47-1.11,8.51-.24,18.49,.53,27.3v.07c.09,.95,.28,1.9,.5,2.85h.52c-.23-.96-.43-1.94-.51-2.89v-.07c-.77-8.78-1.64-18.73-.54-27.19,1.65-12.66,1.83-26.31,.53-40.58-.76-8.37,.27-16.66,1.27-24.67,.44-3.55,.9-7.22,1.2-10.86,.15-1.81,.51-3.56,.86-5.25,.23-1.13,.47-2.29,.65-3.47,.56,5.97-.07,17.14-.58,26.31-.32,5.7-.59,10.61-.55,13.42,.03,2.28,.46,4.39,.87,6.43,.43,2.13,.87,4.34,.86,6.74-.02,5.95,.11,12,.23,17.84,.08,3.94,.17,8.01,.2,12.01,.03,3.24-.16,6.47-.34,9.6-.28,4.75-.57,9.66-.07,14.61,.18,1.79,.13,3.81,.07,5.95-.02,.69-.03,1.38-.04,2.08h.51c0-.69,.03-1.38,.04-2.06,.06-2.15,.11-4.19-.07-6.01-.49-4.91-.2-9.8,.08-14.53,.18-3.14,.38-6.38,.34-9.63-.04-4-.12-8.07-.2-12.01-.12-5.84-.25-11.88-.23-17.83,0-2.45-.44-4.68-.87-6.84-.41-2.02-.82-4.1-.86-6.33-.04-2.79,.23-7.7,.55-13.38,.58-10.36,1.29-23.24,.3-28.43,.04-.63,.06-1.27,.04-1.92-.05-1.47-.12-2.96-.2-4.39-.12-2.4-.25-4.88-.25-7.35,.02-6.27,.45-13.14,.86-19.79,.1-1.57,.19-3.12,.28-4.65,.05-.9,.1-1.8,.15-2.67,.22-4.06,.02-8.04-.33-11.94-.18-10.95-.34-24,.21-26.68,.77-3.72,.92-6.52,.54-10.31-.23-2.31-.26-5.45-.3-8.78-.04-4.17-.09-8.67-.52-12.52h-.51c.43,3.83,.48,8.35,.52,12.53Z"/>
            <path class="cls-9" d="M10.14,14.52V222.66H294.05V14.52H10.14ZM292.6,221.6H11.58V15.58H292.6V221.6Z"/>
            <g class="cls-6">
              <g>
                <path class="cls-8" d="M268.89,192.62c-.77-.13-1.57-.34-2.34-.34-1.52,0-2.76,.49-4.11,1.14-1,.49-1.86,1.3-2.52,2.16-.6,.78-1.09,1.64-1.35,2.6-.15,.56-.31,1.6-.27,2.18,.12,1.82,.69,3.77,2.09,5.05,1.39,1.28,3.12,2.1,5.05,2.09,1.41,0,2.8-.34,4.03-1.06,.98-.57,1.55-1.19,2.14-1.94,.38-.45,.77-.9,1.07-1.41,.38-.65,.61-1.37,.87-2.07-.06,.14-.12,.27-.17,.41,.57-1.62,.62-3.22-.1-4.93-.74-1.76-2.36-3.57-4.37-3.9Z"/>
                <path class="cls-8" d="M261.84,184.26s.01,.06,.02,.08c.37,1.32,1.04,2.47,2.01,3.44,.97,.97,2.12,1.64,3.44,2.01,.03,0,.06,.01,.08,.02,1.06,.33,2.11,.38,3.17,.14,1.06-.05,2.04-.36,2.96-.94,.54-.41,1.07-.83,1.61-1.24,.99-.99,1.67-2.16,2.05-3.51,0-.02,.02-.05,.03-.07,.38-1.4,.38-2.81,0-4.21-.38-1.34-1.05-2.5-2.04-3.49-.99-.98-2.15-1.66-3.49-2.04-1.4-.38-2.81-.38-4.21,0-.02,0-.05,.02-.07,.03-1.03,.25-1.94,.72-2.7,1.42-.87,.56-1.55,1.3-2.05,2.23-.27,.63-.53,1.27-.8,1.9-.38,1.41-.38,2.82,0,4.23Z"/>
                <path class="cls-8" d="M247.34,170.14c-4.59,0-4.59,7.13,0,7.13s4.59-7.13,0-7.13Z"/>
                <path class="cls-8" d="M52.92,29.34c.96,.88,2.15,1.44,3.48,1.44,.68,.03,1.31-.12,1.89-.42,.61-.2,1.14-.54,1.58-1.02,.48-.45,.82-.97,1.02-1.58,.31-.59,.45-1.22,.42-1.89-.06-.44-.12-.87-.18-1.31-.23-.83-.66-1.56-1.26-2.17-.96-.88-2.14-1.44-3.48-1.44-.68-.03-1.31,.12-1.89,.42-.61,.2-1.14,.54-1.58,1.02-.48,.45-.82,.97-1.02,1.58-.31,.59-.45,1.22-.42,1.89,.06,.44,.12,.87,.18,1.31,.23,.83,.66,1.56,1.26,2.17Z"/>
                <path class="cls-8" d="M47.52,41.74c.14,.05,.3,.07,.44,.1,.71,.15,1.29-.43,1.14-1.14-.03-.15-.05-.3-.1-.44-.28-.84-1.34-1.2-2.01-.53-.67,.67-.31,1.73,.53,2.01Z"/>
                <path class="cls-8" d="M58.25,37.4c-.23,.43-.33,.9-.31,1.4,.04,.94,.35,1.92,1.06,2.57,.71,.65,1.59,1.06,2.57,1.06,.93,0,1.91-.41,2.57-1.06,.35-.33,.6-.72,.75-1.17,.23-.43,.33-.9,.31-1.4-.04-.94-.35-1.92-1.06-2.57-.71-.65-1.59-1.06-2.57-1.06-.93,0-1.91,.41-2.57,1.06-.35,.33-.6,.72-.75,1.17Z"/>
                <path class="cls-8" d="M57.26,53.34c-4.59,0-4.59,7.13,0,7.13s4.59-7.13,0-7.13Z"/>
                <path class="cls-8" d="M52.09,51.57c2.57,0,2.57-3.99,0-3.99s-2.57,3.99,0,3.99Z"/>
                <path class="cls-8" d="M18.9,52.58c2.2,0,2.2-3.42,0-3.42s-2.2,3.42,0,3.42Z"/>
                <path class="cls-8" d="M17.18,57.27c-1.19,0-1.19,1.85,0,1.85s1.19-1.85,0-1.85Z"/>
                <path class="cls-8" d="M16.75,25.04c.76,0,1.56-.33,2.1-.87,.51-.51,.9-1.36,.87-2.1-.03-.77-.29-1.56-.87-2.1-.58-.53-1.29-.87-2.1-.87-.76,0-1.56,.33-2.1,.87-.51,.51-.9,1.36-.87,2.1,.03,.77,.29,1.56,.87,2.1,.58,.53,1.29,.87,2.1,.87Z"/>
                <path class="cls-8" d="M17.62,30.68c.49-.49,.85-1.28,.82-1.98-.03-.72-.27-1.48-.82-1.98-.55-.5-1.22-.82-1.98-.82-.72,0-1.47,.31-1.98,.82-.49,.49-.85,1.28-.82,1.98,.03,.72,.27,1.48,.82,1.98,.55,.5,1.22,.82,1.98,.82,.72,0,1.47-.31,1.98-.82Z"/>
                <path class="cls-8" d="M17.3,77.3c-.48,1.45,.06,3.18,1.12,4.23,1.05,1.05,2.78,1.6,4.23,1.12,.89-.3,1.38-.57,2.07-1.21,.43-.4,.73-.87,.91-1.41,.27-.52,.4-1.09,.38-1.69,.02-.6-.1-1.17-.38-1.69-.18-.54-.48-1.02-.91-1.41-.84-.77-1.94-1.34-3.1-1.29-1.14,.05-2.31,.42-3.1,1.29-.64,.69-.92,1.18-1.21,2.07Z"/>
                <path class="cls-8" d="M35.81,84.27c.3-.57,.44-1.19,.42-1.86-.06-.43-.11-.85-.17-1.28-.23-.82-.64-1.53-1.24-2.13-.94-.87-2.1-1.41-3.41-1.41-.66-.03-1.28,.11-1.86,.42-.6,.19-1.11,.53-1.55,1-.47,.44-.8,.95-1,1.55-.3,.57-.44,1.19-.42,1.86,.06,.43,.11,.85,.17,1.28,.23,.82,.64,1.53,1.24,2.13,.94,.87,2.1,1.41,3.41,1.41,.66,.03,1.28-.11,1.86-.42,.6-.19,1.11-.53,1.55-1,.47-.44,.8-.95,1-1.55Z"/>
                <path class="cls-8" d="M21.92,84.5c-1.65,0-1.65,2.57,0,2.57s1.65-2.57,0-2.57Z"/>
                <path class="cls-8" d="M15.31,82.72c-.14,.42-.08,1.18,.2,1.54,.1,.13,.21,.27,.31,.4,.18,.31,.43,.56,.74,.74,.32,.19,.67,.28,1.04,.28,.55-.02,1.07-.21,1.46-.61,.37-.37,.61-.93,.61-1.46,0-.37-.1-.72-.28-1.04-.18-.31-.43-.56-.74-.74-.13-.1-.27-.21-.4-.31-.16-.07-.32-.13-.48-.2-.27-.08-.53-.1-.8-.04-.42,.06-.85,.23-1.15,.55-.23,.26-.41,.55-.51,.88Z"/>
                <path class="cls-8" d="M18.27,93.41c.15-.16,.26-.34,.32-.55,.22-.51,.27-1.08,.13-1.62-.28-1.01-1.32-1.87-2.4-1.83-1,.04-1.88,.6-2.27,1.53-.22,.51-.27,1.08-.13,1.62,.08,.2,.17,.4,.25,.59,.22,.37,.52,.67,.89,.89,.05,.03,.09,.07,.14,.1,.56,.42,1.67,.42,2.23,0,.05-.03,.09-.07,.14-.1,.29-.16,.52-.37,.7-.64Z"/>
                <path class="cls-8" d="M21.8,93.66c.61,.54,1.41,.74,2.18,.41,.7-.3,1.26-1.03,1.23-1.82-.03-.7-.37-1.36-.99-1.72-.81-.47-1.75-.28-2.42,.31-.08,.07-.15,.13-.23,.2-.66,.58-.66,1.84,0,2.42,.08,.07,.15,.13,.23,.2Z"/>
                <path class="cls-8" d="M68.04,30.18c.93,.86,2.08,1.4,3.37,1.4,.66,.02,1.27-.11,1.84-.41,.59-.19,1.1-.52,1.54-.99,.47-.43,.79-.94,.99-1.54,.3-.57,.44-1.18,.41-1.84-.06-.42-.11-.85-.17-1.27-.23-.81-.64-1.51-1.23-2.11-.93-.86-2.08-1.4-3.37-1.4-.66-.02-1.27,.11-1.84,.41-.59,.19-1.1,.52-1.54,.99-.47,.43-.79,.94-.99,1.54-.3,.57-.44,1.18-.41,1.84,.06,.42,.11,.85,.17,1.27,.23,.81,.64,1.51,1.23,2.11Z"/>
                <path class="cls-8" d="M80.63,26.93c.09,.11,.17,.21,.26,.32,.25,.2,.51,.39,.76,.59,.3,.13,.6,.25,.9,.38,.5,.16,1,.18,1.51,.07,.34,0,.66-.09,.95-.26,.32-.09,.6-.25,.83-.49,.28-.17,.51-.39,.68-.68,.23-.24,.4-.51,.49-.83,.24-.45,.34-.94,.33-1.46-.04-.33-.09-.67-.13-1-.13-.3-.25-.6-.38-.9-.2-.25-.39-.51-.59-.76-.25-.2-.51-.39-.76-.59-.3-.13-.6-.25-.9-.38-.5-.16-1-.18-1.51-.07-.34,0-.66,.09-.95,.26-.47,.15-.87,.41-1.22,.78-.09,.11-.17,.21-.26,.32-.32,.3-.55,.66-.69,1.07-.21,.4-.3,.82-.29,1.28,.04,.29,.08,.59,.12,.88,.16,.56,.44,1.05,.86,1.47Z"/>
                <path class="cls-8" d="M77.09,37.56c2.84,0,2.85-4.42,0-4.42s-2.85,4.42,0,4.42Z"/>
                <path class="cls-8" d="M70.5,42.32c.44-.75,.26-1.62-.29-2.25l-.2-.23c-.53-.61-1.68-.61-2.22,0l-.2,.23c-.5,.57-.68,1.31-.38,2.02,.27,.65,.96,1.17,1.69,1.14,.65-.03,1.27-.35,1.6-.92Z"/>
                <path class="cls-8" d="M44.58,194.4c-.06-.48-.13-.96-.19-1.44-.26-.92-.72-1.71-1.39-2.39-.37-.28-.73-.56-1.1-.85-.84-.49-1.76-.74-2.73-.74-.75-.03-1.44,.13-2.09,.47-.67,.22-1.25,.59-1.74,1.12-.53,.49-.9,1.07-1.12,1.74-.34,.65-.49,1.34-.47,2.09,.06,.48,.13,.96,.19,1.44,.26,.92,.72,1.71,1.39,2.39,.37,.28,.73,.56,1.1,.85,.84,.49,1.76,.74,2.73,.74,.75,.03,1.44-.13,2.09-.47,.67-.22,1.25-.59,1.74-1.12,.53-.49,.9-1.07,1.12-1.74,.34-.65,.49-1.34,.47-2.09Z"/>
                <path class="cls-8" d="M60.28,141.07c-7.61,0-7.63,11.83,0,11.83s7.63-11.83,0-11.83Z"/>
                <path class="cls-8" d="M71.6,205.32c.02-.34-.03-.66-.14-.96-.32-1.15-.91-2.16-1.75-3.01-.85-.85-1.89-1.45-3.05-1.77-.59-.16-1.36-.2-2.03-.27-.15-.01-.31-.03-.46-.04-.68,.09-1.35,.18-2.03,.27-.61,.26-1.21,.51-1.82,.77-.89,.48-1.6,1.13-2.14,1.96-.47,.48-.8,1.04-.98,1.68-.34,.59-.52,1.24-.52,1.92-.18,.68-.18,1.35,0,2.03,0,.69,.18,1.33,.52,1.92,.31,.95,.83,1.76,1.58,2.45,.51,.4,1.03,.8,1.54,1.19,.61,.26,1.21,.51,1.82,.77,.68,.09,1.35,.18,2.03,.27,.68-.09,1.35-.18,2.03-.27,.61-.26,1.21-.51,1.82-.77,.89-.48,1.6-1.13,2.14-1.96,.47-.48,.8-1.04,.98-1.68,.48-.91,.7-1.89,.66-2.94-.01-.15-.03-.31-.04-.46-.04-.38-.09-.73-.14-1.12Z"/>
                <path class="cls-8" d="M55.97,185.95c-5.32,0-5.33,8.27,0,8.27s5.33-8.27,0-8.27Z"/>
                <path class="cls-8" d="M50.37,196.63c-1.56,0-1.56,2.42,0,2.42s1.56-2.42,0-2.42Z"/>
                <path class="cls-8" d="M45.19,200.16c-2.57,0-2.57,3.99,0,3.99s2.57-3.99,0-3.99Z"/>
                <path class="cls-8" d="M35.71,207.56c-.6,0-1.24,.26-1.66,.69s-.72,1.08-.69,1.66c.03,.61,.23,1.24,.69,1.66,.46,.42,1.03,.69,1.66,.69,.6,0,1.24-.26,1.66-.69,.41-.41,.72-1.08,.69-1.66-.03-.61-.23-1.24-.69-1.66-.46-.42-1.03-.69-1.66-.69Z"/>
                <path class="cls-8" d="M27.44,201.03c-.36-.28-.72-.56-1.09-.84-.84-.49-1.74-.73-2.71-.73-.74-.03-1.43,.13-2.07,.46-.67,.22-1.24,.59-1.73,1.11-.52,.49-.89,1.06-1.11,1.73-.34,.64-.49,1.33-.46,2.07,.06,.48,.13,.95,.19,1.43,.26,.91,.72,1.7,1.38,2.37,.36,.28,.72,.56,1.09,.84,.84,.49,1.74,.73,2.71,.73,.74,.03,1.43-.13,2.07-.46,.67-.22,1.24-.59,1.73-1.11,.52-.49,.89-1.06,1.11-1.73,.34-.64,.49-1.33,.46-2.07-.06-.48-.13-.95-.19-1.43-.26-.91-.72-1.7-1.38-2.37Z"/>
                <path class="cls-8" d="M20.63,189.71c3.39,0,3.4-5.27,0-5.27s-3.4,5.27,0,5.27Z"/>
                <path class="cls-8" d="M27.52,193.69c-2.02,0-2.02,3.14,0,3.14s2.02-3.14,0-3.14Z"/>
                <path class="cls-8" d="M261.57,43.11c.37,.29,.74,.57,1.11,.86,.86,.5,1.78,.75,2.77,.75,.76,.03,1.46-.13,2.11-.47,.68-.22,1.27-.6,1.77-1.13,.54-.5,.91-1.09,1.13-1.77,.34-.65,.5-1.36,.47-2.11-.07-.49-.13-.97-.2-1.46-.26-.93-.73-1.74-1.41-2.42-.37-.29-.74-.57-1.11-.86-.86-.5-1.78-.75-2.77-.75-.76-.03-1.46,.13-2.11,.47-.68,.22-1.27,.6-1.77,1.13-.54,.5-.91,1.09-1.13,1.77-.34,.65-.5,1.36-.47,2.11,.07,.49,.13,.97,.2,1.46,.26,.93,.73,1.74,1.41,2.42Z"/>
                <path class="cls-8" d="M254.32,59.99l-.22-1.63c-.29-1.04-.82-1.94-1.58-2.7l-1.24-.96c-.96-.55-1.99-.83-3.09-.84-.84-.03-1.63,.14-2.36,.53-.76,.25-1.42,.67-1.97,1.27-.6,.56-1.02,1.21-1.27,1.97-.38,.73-.56,1.52-.53,2.36,.07,.54,.15,1.09,.22,1.63,.29,1.04,.82,1.94,1.58,2.7,.41,.32,.83,.64,1.24,.96,.96,.55,1.99,.83,3.09,.84,.84,.03,1.63-.14,2.36-.53,.76-.25,1.42-.67,1.97-1.27,.6-.56,1.02-1.21,1.27-1.97,.38-.73,.56-1.52,.53-2.36Z"/>
                <path class="cls-8" d="M258.73,80c.39,.3,.79,.61,1.18,.91,.91,.53,1.89,.79,2.95,.8,.8,.03,1.56-.14,2.25-.5,.72-.24,1.35-.64,1.88-1.21,.57-.53,.97-1.16,1.21-1.88,.37-.7,.53-1.45,.5-2.25-.07-.52-.14-1.04-.21-1.55-.28-.99-.78-1.85-1.5-2.58-.39-.3-.79-.61-1.18-.91-.91-.53-1.89-.79-2.95-.8-.8-.03-1.56,.14-2.25,.5-.72,.24-1.35,.64-1.88,1.21-.57,.53-.97,1.16-1.21,1.88-.37,.7-.53,1.45-.5,2.25,.07,.52,.14,1.04,.21,1.55,.28,.99,.78,1.85,1.5,2.58Z"/>
                <path class="cls-8" d="M268.78,52.88c-.3,.58-.44,1.2-.42,1.87l.17,1.29c.23,.82,.65,1.53,1.25,2.14,.95,.87,2.11,1.42,3.43,1.42,.67,.03,1.29-.11,1.87-.42,.6-.2,1.12-.53,1.56-1,.47-.44,.81-.96,1-1.56,.3-.58,.44-1.2,.42-1.87-.06-.43-.12-.86-.17-1.29-.23-.82-.65-1.53-1.25-2.14-.95-.87-2.11-1.42-3.43-1.42-.67-.03-1.29,.11-1.87,.42-.6,.2-1.12,.53-1.56,1-.47,.44-.81,.96-1,1.56Z"/>
                <path class="cls-8" d="M262.43,53.61c-3.12,0-3.12,4.85,0,4.85s3.12-4.85,0-4.85Z"/>
                <path class="cls-8" d="M252.09,47.53c5.14,0,5.15-7.98,0-7.98s-5.15,7.98,0,7.98Z"/>
                <path class="cls-8" d="M205.97,55.92c-3.49,0-3.49,5.42,0,5.42s3.49-5.42,0-5.42Z"/>
                <path class="cls-8" d="M230.6,103.78c.62-.62,1.04-1.35,1.28-2.19,.21-.66,.24-1.32,.09-1.98-.03-.66-.23-1.28-.59-1.85-.44-.75-1.04-1.34-1.78-1.78-.01,0-.02-.02-.04-.02-1.39-.91-3.56-.91-4.94,0-.01,0-.02,.02-.04,.02-.75,.44-1.34,1.04-1.78,1.78-.36,.57-.56,1.19-.59,1.85-.15,.66-.12,1.32,.09,1.98,.24,.84,.66,1.57,1.28,2.19,.03,.03,.06,.06,.09,.08,.44,.47,.96,.81,1.56,1,.58,.3,1.2,.44,1.87,.42,.43-.06,.86-.12,1.29-.17,.82-.23,1.53-.65,2.14-1.25,.03-.03,.06-.06,.09-.08Z"/>
                <path class="cls-8" d="M246.48,90.42c-7.34,0-7.35,11.4,0,11.4s7.35-11.4,0-11.4Z"/>
                <path class="cls-8" d="M224.07,114.75c-3.76,0-3.77,5.84,0,5.84s3.77-5.84,0-5.84Z"/>
                <path class="cls-8" d="M249.84,114.24c-.11,0-.23,.01-.34,.02-.45,.03-.87,.17-1.19,.49-.29,.29-.51,.77-.49,1.19,.04,.96,.74,1.63,1.69,1.69,.11,0,.23,.01,.34,.02,.89,.05,1.75-.82,1.71-1.71-.04-.88-.75-1.77-1.71-1.71Z"/>
                <path class="cls-8" d="M263.29,100.97c-1.53,0-1.53,2.38,0,2.38s1.53-2.38,0-2.38Z"/>
                <path class="cls-8" d="M269.35,110.15c-.09,.01-.17,.03-.26,.04-1.43,.23-1.44,2.67,0,2.9,.09,.01,.17,.03,.26,.04,2.49,.39,2.51-3.37,0-2.98Z"/>
                <path class="cls-8" d="M276.65,91.36s-.03,.05,0,.05,.03-.05,0-.05Z"/>
                <path class="cls-8" d="M277.52,84.51s.03-.05,0-.05-.03,.05,0,.05Z"/>
                <path class="cls-8" d="M285.7,35.56c1.38,0,1.38-2.14,0-2.14s-1.38,2.14,0,2.14Z"/>
                <path class="cls-8" d="M288.29,63.06c-.95,0-.95,1.47,0,1.47s.95-1.47,0-1.47Z"/>
                <path class="cls-8" d="M279.67,83.47c1.47,0,1.47-2.28,0-2.28s-1.47,2.28,0,2.28Z"/>
                <path class="cls-8" d="M283.98,96.98c1.1,0,1.1-1.71,0-1.71s-1.1,1.71,0,1.71Z"/>
                <path class="cls-8" d="M284.41,83.95c1.53,0,1.53-2.38,0-2.38s-1.53,2.38,0,2.38Z"/>
                <path class="cls-8" d="M279.24,72.15c1.31,0,1.32-2.04,0-2.04s-1.32,2.04,0,2.04Z"/>
                <path class="cls-8" d="M271.05,73.03c.79,0,.8-1.24,0-1.24s-.8,1.24,0,1.24Z"/>
                <path class="cls-8" d="M279.67,64.77c.7,0,.7-1.09,0-1.09s-.7,1.09,0,1.09Z"/>
                <path class="cls-8" d="M285.7,57.82c-1.04,0-1.04,1.62,0,1.62s1.04-1.62,0-1.62Z"/>
                <path class="cls-8" d="M270.62,64.61c-.06,0-.06,.1,0,.1s.06-.1,0-.1Z"/>
                <path class="cls-8" d="M260.71,65.18c.67,0,.67-1.05,0-1.05s-.67,1.05,0,1.05Z"/>
                <path class="cls-8" d="M250.79,75.41s-.03,.05,0,.05,.03-.05,0-.05Z"/>
                <path class="cls-8" d="M249.5,77.77c-1.44,0-1.44,2.23,0,2.23s1.44-2.23,0-2.23Z"/>
                <path class="cls-8" d="M258.98,88.33c1.07,0,1.07-1.66,0-1.66s-1.07,1.66,0,1.66Z"/>
                <path class="cls-8" d="M265.45,85.91c-1.5,0-1.5,2.33,0,2.33s1.5-2.33,0-2.33Z"/>
                <path class="cls-8" d="M266.74,95.5c.31,0,.31-.48,0-.48s-.31,.48,0,.48Z"/>
                <path class="cls-8" d="M95.62,29.52c1.38,0,1.38-2.14,0-2.14s-1.38,2.14,0,2.14Z"/>
                <path class="cls-8" d="M87.43,47.43c1.13,0,1.13-1.76,0-1.76s-1.13,1.76,0,1.76Z"/>
                <path class="cls-8" d="M88.3,59.51s.03-.05,0-.05-.03,.05,0,.05Z"/>
                <path class="cls-8" d="M71.92,64.36c1.28,0,1.29-2,0-2s-1.29,2,0,2Z"/>
                <path class="cls-8" d="M74.5,47.9c-1.04,0-1.04,1.62,0,1.62s1.04-1.62,0-1.62Z"/>
                <path class="cls-8" d="M77.09,60.75c1.07,0,1.07-1.66,0-1.66s-1.07,1.66,0,1.66Z"/>
                <path class="cls-8" d="M62.44,56.16c-.4,0-.4,.62,0,.62s.4-.62,0-.62Z"/>
                <path class="cls-8" d="M56.83,75.52c1.22,0,1.23-1.9,0-1.9s-1.22,1.9,0,1.9Z"/>
                <path class="cls-8" d="M46.06,77.13c1.07,0,1.07-1.66,0-1.66s-1.07,1.66,0,1.66Z"/>
                <path class="cls-8" d="M57.12,62.77c.45-.43,.33-1.19-.19-1.49-.48-.28-1.31-.05-1.4,.57-.05,.36-.15,.75-.12,1.11,.05,.44,.47,.75,.89,.51,.31-.18,.55-.46,.81-.7Z"/>
                <path class="cls-8" d="M67.61,71.35c1.41,0,1.41-2.19,0-2.19s-1.41,2.19,0,2.19Z"/>
                <path class="cls-8" d="M69.33,82.35c1.13,0,1.13-1.76,0-1.76s-1.13,1.76,0,1.76Z"/>
                <path class="cls-8" d="M53.38,89.68s.03-.05,0-.05-.03,.05,0,.05Z"/>
                <path class="cls-8" d="M40.02,90.89c-1.74,0-1.75,2.71,0,2.71s1.75-2.71,0-2.71Z"/>
                <path class="cls-8" d="M72.78,100.04c-.88,0-1.73,.78-1.69,1.69,.04,.91,.74,1.69,1.69,1.69,.88,0,1.73-.78,1.69-1.69-.04-.91-.74-1.69-1.69-1.69Z"/>
                <path class="cls-8" d="M87,123.68s-.03,.05,0,.05,.03-.05,0-.05Z"/>
                <path class="cls-8" d="M89.16,146.63c-.46,0-.46,.71,0,.71s.46-.71,0-.71Z"/>
                <path class="cls-8" d="M81.83,162.94c-1.65,0-1.65,2.57,0,2.57s1.65-2.57,0-2.57Z"/>
                <path class="cls-8" d="M79.25,188.41c-.49,0-.49,.76,0,.76s.49-.76,0-.76Z"/>
                <path class="cls-8" d="M89.59,196.73c-1.44,0-1.44,2.23,0,2.23s1.44-2.23,0-2.23Z"/>
                <path class="cls-8" d="M47.78,186.78c-.37,0-.37,.57,0,.57s.37-.57,0-.57Z"/>
                <path class="cls-8" d="M43.9,173.99c1.47,0,1.47-2.28,0-2.28s-1.47,2.28,0,2.28Z"/>
                <path class="cls-8" d="M48.64,167.54c1.5,0,1.5-2.33,0-2.33s-1.5,2.33,0,2.33Z"/>
                <path class="cls-8" d="M59.85,169.85s.03-.05,0-.05-.03,.05,0,.05Z"/>
                <path class="cls-8" d="M65.02,171.8c-1.35,0-1.35,2.09,0,2.09s1.35-2.09,0-2.09Z"/>
                <path class="cls-8" d="M61.57,177.61c.58,0,.58-.9,0-.9s-.58,.9,0,.9Z"/>
                <path class="cls-8" d="M54.68,178.9c1.13,0,1.13-1.76,0-1.76s-1.13,1.76,0,1.76Z"/>
                <path class="cls-8" d="M47.78,180.85c-1.35,0-1.35,2.09,0,2.09s1.35-2.09,0-2.09Z"/>
                <path class="cls-8" d="M18.47,168.25c-.92,0-.92,1.43,0,1.43s.92-1.43,0-1.43Z"/>
                <path class="cls-8" d="M27.52,137.18c-2.08,0-2.08,3.23,0,3.23s2.08-3.23,0-3.23Z"/>
                <path class="cls-8" d="M110.71,80.64c.46-.02,.91-.25,1.15-.66,.29-.5,.21-1.2-.21-1.61-.07-.07-.15-.14-.22-.21-.4-.39-1.04-.39-1.44,0-.07,.07-.15,.14-.22,.21-.8,.78-.22,2.32,.94,2.27Z"/>
                <path class="cls-8" d="M175.99,68.25c-.34,.15-.64,.38-.83,.71-.25,.42-.25,.87-.17,1.34,.02,.1,.03,.2,.05,.3,.06,.38,.48,.8,.86,.86,.1,.02,.2,.03,.3,.05,.41,.07,.75,.07,1.13-.09,.34-.15,.64-.38,.83-.71,.37-.64,.29-1.59-.27-2.1-.52-.48-1.24-.64-1.89-.36Z"/>
                <path class="cls-8" d="M158.98,83.42c-1.93,0-1.93,2.99,0,2.99s1.93-2.99,0-2.99Z"/>
                <path class="cls-8" d="M150.79,105.64c1.71,0,1.72-2.66,0-2.66s-1.72,2.66,0,2.66Z"/>
                <path class="cls-8" d="M158.44,118.54c.03,.76,.62,1.4,1.4,1.4,.73,0,1.44-.64,1.4-1.4-.03-.76-.62-1.4-1.4-1.4-.73,0-1.44,.64-1.4,1.4Z"/>
                <path class="cls-8" d="M177.95,137.54c-2.17,0-2.17,3.37,0,3.37s2.17-3.37,0-3.37Z"/>
                <path class="cls-8" d="M262.67,157.53c.47,.25,1.12,.22,1.5-.19,.21-.23,.41-.45,.62-.68,.64-.71,.55-1.85-.3-2.35-.78-.46-2.01-.07-2.2,.89-.06,.31-.12,.62-.18,.93-.1,.52,.06,1.13,.57,1.4Z"/>
                <path class="cls-8" d="M257.69,174.34c-1.96,0-1.96,3.04,0,3.04s1.96-3.04,0-3.04Z"/>
                <path class="cls-8" d="M235.71,178.85c1.62,0,1.62-2.52,0-2.52s-1.62,2.52,0,2.52Z"/>
                <path class="cls-8" d="M225.36,172.52c-1.53,0-1.53,2.38,0,2.38s1.53-2.38,0-2.38Z"/>
                <path class="cls-8" d="M218.47,185.01c-.43-.05-.43,.71,0,.67,.14-.02,.29-.03,.43-.05,.37-.04,.37-.53,0-.57-.14-.02-.29-.03-.43-.05Z"/>
                <path class="cls-8" d="M222.34,189.25s.03-.05,0-.05-.03,.05,0,.05Z"/>
                <path class="cls-8" d="M212.86,192.3c-1.59,0-1.59,2.47,0,2.47s1.59-2.47,0-2.47Z"/>
                <path class="cls-8" d="M206.4,184.04c-.91,0-1.78,.8-1.73,1.73,.04,.94,.76,1.73,1.73,1.73,.91,0,1.78-.8,1.73-1.73-.04-.94-.76-1.73-1.73-1.73Z"/>
                <path class="cls-8" d="M206.81,175.44c-.57-.16-1.27-.09-1.77,.24-.89,.58-1.28,1.64-.86,2.64,.18,.42,.47,.74,.82,.96,.08,.06,.16,.12,.24,.17,.46,.27,1.13,.38,1.65,.22,.52-.17,1.02-.49,1.28-.98,.26-.48,.41-1.11,.22-1.65-.28-.76-.75-1.36-1.56-1.59Zm-.58,4.15s-.04,0-.05,0c-.03,0-.05,0-.08-.01,.04,0,.09,0,.13,0Z"/>
                <path class="cls-8" d="M197.26,191.46c-.53-.28-1.26-.48-1.85-.24-.91,.37-2.01,.67-2.68,1.4-.67,.73-.89,1.73-.5,2.66,.17,.4,.41,.71,.75,.97,.39,.3,.96,.58,1.47,.52,.58-.06,1-.1,1.52-.38,.14-.08,.28-.17,.41-.25,.29-.18,.59-.35,.88-.53,1.03-.62,1.45-1.9,.98-3-.19-.46-.53-.91-.98-1.15Z"/>
                <path class="cls-8" d="M176.66,205.77c-.62,0-1.27,.27-1.71,.71s-.74,1.11-.71,1.71c.06,1.31,1.06,2.42,2.42,2.42,.62,0,1.27-.27,1.71-.71,.42-.42,.74-1.11,.71-1.71-.06-1.31-1.06-2.42-2.42-2.42Z"/>
                <path class="cls-8" d="M169.76,187.31c-.71,0-1.46,.31-1.97,.81-.48,.48-.85,1.27-.81,1.97,.03,.72,.27,1.46,.81,1.97,.54,.5,1.21,.81,1.97,.81,.71,0,1.46-.31,1.97-.81s.85-1.27,.81-1.97c-.03-.72-.27-1.46-.81-1.97-.54-.5-1.21-.81-1.97-.81Z"/>
                <path class="cls-8" d="M167.17,187.65c2.97,0,2.97-4.61,0-4.61s-2.97,4.61,0,4.61Z"/>
                <path class="cls-8" d="M150.86,196.55c-.52-.89-1.55-1.36-2.56-1.23-.46,.06-.84,.22-1.21,.51-.4,.31-.83,.81-.92,1.33-.07,.44-.12,.85-.01,1.28,.04,.16,.04,.13,.14,.39,.38,.9,1.33,1.62,2.34,1.58,.89-.04,1.75-.48,2.22-1.27,.45-.77,.45-1.82,0-2.59Z"/>
                <path class="cls-8" d="M142.61,207.49c-2.57,0-2.57,3.99,0,3.99s2.57-3.99,0-3.99Z"/>
                <path class="cls-8" d="M124.5,194.29c-2.35,0-2.36,3.66,0,3.66s2.36-3.66,0-3.66Z"/>
                <path class="cls-8" d="M129.24,181.75c-2.97,0-2.97,4.61,0,4.61s2.97-4.61,0-4.61Z"/>
                <path class="cls-8" d="M165.88,206.96c-2.14,0-2.14,3.33,0,3.33s2.14-3.33,0-3.33Z"/>
                <path class="cls-8" d="M162,202.28c-1.5,0-1.5,2.33,0,2.33s1.5-2.33,0-2.33Z"/>
                <path class="cls-8" d="M151.66,215.21c-1.5,0-1.5,2.33,0,2.33s1.5-2.33,0-2.33Z"/>
                <path class="cls-8" d="M124.07,219.52c-.4,0-.4,.62,0,.62s.4-.62,0-.62Z"/>
                <path class="cls-8" d="M124.07,209.61c-.95,0-.95,1.47,0,1.47s.95-1.47,0-1.47Z"/>
                <path class="cls-8" d="M114.16,216.65c-.76,0-.77,1.19,0,1.19s.77-1.19,0-1.19Z"/>
                <path class="cls-8" d="M100.8,215.86c-.67,0-.67,1.05,0,1.05s.67-1.05,0-1.05Z"/>
                <path class="cls-8" d="M99.07,205.75c-.92,0-.92,1.43,0,1.43s.92-1.43,0-1.43Z"/>
                <path class="cls-8" d="M94.33,212.09s.03-.05,0-.05-.03,.05,0,.05Z"/>
                <path class="cls-8" d="M90.45,211.88c-.8,0-.8,1.24,0,1.24s.8-1.24,0-1.24Z"/>
                <path class="cls-8" d="M294.33,213.34s-.03,.05,0,.05,.03-.05,0-.05Z"/>
                <path class="cls-8" d="M271.48,209.98c-.54,0-1.1,.23-1.48,.61-.36,.36-.64,.96-.61,1.48,.05,1.13,.92,2.09,2.09,2.09,.54,0,1.1-.23,1.48-.61,.36-.36,.64-.96,.61-1.48-.05-1.13-.92-2.09-2.09-2.09Z"/>
                <path class="cls-8" d="M283.55,200.69c-3,0-3,4.66,0,4.66s3-4.66,0-4.66Z"/>
                <path class="cls-8" d="M286.37,210.72c-.75-.83-2.3-.83-3.05,0-.04,.05-.08,.09-.12,.14-.64,.71-.86,1.66-.48,2.54,.34,.82,1.2,1.47,2.13,1.43,.81-.04,1.59-.44,2.01-1.15,.54-.93,.33-2.05-.36-2.82-.04-.05-.08-.09-.12-.14Z"/>
                <path class="cls-8" d="M280.53,182.99c-3.03,0-3.03,4.7,0,4.7s3.03-4.7,0-4.7Z"/>
                <path class="cls-8" d="M277.08,196.52c-2.81,0-2.82,4.37,0,4.37s2.82-4.37,0-4.37Z"/>
                <path class="cls-8" d="M287.31,153.2c-.3-.39-.65-.67-1.17-.67s-.87,.28-1.17,.67c-.08,.1-.15,.2-.23,.3-.34,.45-.27,1.18,0,1.63,.29,.49,.83,.8,1.4,.8s1.11-.31,1.39-.8c.27-.45,.34-1.18,0-1.63-.08-.1-.15-.2-.23-.3Z"/>
                <path class="cls-8" d="M280.14,139.23c.05,1.15,.93,2.11,2.11,2.11,.54,0,1.11-.24,1.5-.62,.37-.37,.64-.97,.62-1.5-.05-1.15-.93-2.11-2.11-2.11-.54,0-1.11,.24-1.5,.62-.37,.37-.64,.97-.62,1.5Z"/>
                <path class="cls-8" d="M279.67,158.99c.54,0,1.1-.23,1.48-.61,.36-.36,.64-.96,.61-1.48-.05-1.13-.92-2.09-2.09-2.09-.54,0-1.1,.23-1.48,.61-.36,.36-.64,.96-.61,1.48,.05,1.13,.92,2.09,2.09,2.09Z"/>
                <path class="cls-8" d="M243.46,148.18c-.12,0-.12,.19,0,.19s.12-.19,0-.19Z"/>
                <path class="cls-8" d="M240.45,137.75c1.99,0,1.99-3.09,0-3.09s-1.99,3.09,0,3.09Z"/>
                <path class="cls-8" d="M262.89,131.61c.81,1.17,2.68,1.14,3.44-.07,.47-.47,.74-1.1,.78-1.8,.03-.6-.29-1.37-.74-1.78-.42-.38-.88-.62-1.45-.69-1.13-.15-2.19,.45-2.64,1.5-.4,.95-.17,2.14,.61,2.84Z"/>
                <path class="cls-8" d="M255.53,156.75c-2.97,0-2.97,4.61,0,4.61s2.97-4.61,0-4.61Z"/>
                <path class="cls-8" d="M91.74,117.28c-.54,0-1.11,.24-1.5,.62-.49,.49-.81,1.37-.54,2.06,.04,.1,.08,.21,.12,.31,.16,.42,.35,.75,.71,1.03,.34,.26,.77,.45,1.21,.43,.35-.02,.69-.11,1-.27,.47-.25,.73-.71,.91-1.19,.04-.1,.08-.21,.12-.31,.26-.66-.04-1.59-.54-2.06-.41-.38-.92-.62-1.5-.62Z"/>
                <path class="cls-8" d="M92.32,105.2c-.9,0-1.84,.39-2.48,1.03-.61,.61-1.07,1.61-1.03,2.48,.04,.91,.34,1.85,1.03,2.48,.69,.63,1.53,1.03,2.48,1.03,.9,0,1.84-.39,2.48-1.03s1.07-1.61,1.03-2.48c-.04-.91-.34-1.85-1.03-2.48-.69-.63-1.53-1.03-2.48-1.03Z"/>
                <path class="cls-8" d="M91.34,100.02c1.15-.37,2.26-1.09,2.84-2.18,.16-.38,.32-.76,.48-1.14,.2-.63,.23-1.26,.08-1.9-.03-.63-.22-1.22-.56-1.77-.05-.09-.12-.17-.17-.25-.18-.31-.4-.61-.66-.87-.8-.8-2.03-1.29-3.2-1.21-.44,0-.89,.04-1.34,.14-1.13,.26-2.26,1.2-2.84,2.19-.62,1.06-.81,2.47-.48,3.66,.3,1.1,1.16,2.3,2.18,2.84,1.1,.58,2.44,.88,3.66,.48Z"/>
                <path class="cls-8" d="M83.99,101.21c-2.32,0-2.33,3.61,0,3.61s2.33-3.61,0-3.61Z"/>
                <path class="cls-8" d="M101.23,99.44c-1.83,0-1.84,2.85,0,2.85s1.84-2.85,0-2.85Z"/>
                <path class="cls-8" d="M100.8,93.5c.88,0,1.73-.78,1.69-1.69-.04-.91-.74-1.69-1.69-1.69-.88,0-1.73,.78-1.69,1.69,.04,.91,.74,1.69,1.69,1.69Z"/>
                <path class="cls-8" d="M96.92,83.32c-2.05,0-2.05,3.18,0,3.18s2.05-3.18,0-3.18Z"/>
                <path class="cls-8" d="M88.73,84.07c1.68,0,1.68-2.61,0-2.61s-1.68,2.61,0,2.61Z"/>
                <path class="cls-8" d="M80.54,84.93c-1.65,0-1.65,2.57,0,2.57s1.65-2.57,0-2.57Z"/>
                <path class="cls-8" d="M76.23,97.17c1.35,0,1.35-2.09,0-2.09s-1.35,2.09,0,2.09Z"/>
                <path class="cls-8" d="M70.19,97.46c1.16,0,1.16-1.81,0-1.81s-1.16,1.81,0,1.81Z"/>
                <path class="cls-8" d="M73.64,85.8s.03-.05,0-.05-.03,.05,0,.05Z"/>
                <path class="cls-8" d="M81.78,91.85l-.67,.33c-.37,.18-.37,.8,0,.98,.22,.11,.45,.22,.67,.33,.63,.31,1.43-.06,1.43-.82s-.8-1.13-1.43-.82Z"/>
                <path class="cls-8" d="M87,74.97c-1.71,0-1.72,2.66,0,2.66s1.72-2.66,0-2.66Z"/>
                <path class="cls-8" d="M91.06,74.18c.57-.08,.93-.45,1.13-.97,.31-.8-.49-1.75-1.31-1.71-.47,.02-.93,.25-1.17,.67-.24,.41-.24,.96,0,1.37,.28,.47,.82,.72,1.35,.65Z"/>
                <path class="cls-8" d="M104.24,74.6s.03-.05,0-.05-.03,.05,0,.05Z"/>
                <path class="cls-8" d="M112.86,86.84c2.48,0,2.48-3.85,0-3.85s-2.48,3.85,0,3.85Z"/>
                <path class="cls-8" d="M116.31,96.48c-.1,.17-.19,.34-.29,.51-.41,.73,.41,1.55,1.14,1.14,.17-.1,.34-.19,.51-.29,.56-.31,.65-1.12,.2-1.57-.45-.45-1.25-.36-1.57,.2Z"/>
                <path class="cls-8" d="M109.42,102.96c-1.74,0-1.75,2.71,0,2.71s1.75-2.71,0-2.71Z"/>
                <path class="cls-8" d="M106.4,113.55c-1.03,0-2.02,.91-1.97,1.97,.05,1.07,.87,1.97,1.97,1.97,1.03,0,2.02-.91,1.97-1.97-.05-1.07-.87-1.97-1.97-1.97Z"/>
                <path class="cls-8" d="M77.52,115.1c-2.75,0-2.76,4.28,0,4.28s2.76-4.28,0-4.28Z"/>
                <path class="cls-8" d="M57.69,136.56c1.01,0,1.01-1.57,0-1.57s-1.01,1.57,0,1.57Z"/>
                <path class="cls-8" d="M49.94,116.56c1.9,0,1.9-2.95,0-2.95s-1.9,2.95,0,2.95Z"/>
                <path class="cls-8" d="M47.78,98.32c-2.17,0-2.17,3.37,0,3.37s2.17-3.37,0-3.37Z"/>
                <path class="cls-8" d="M73.21,113.92c-1.5,0-1.5,2.33,0,2.33s1.5-2.33,0-2.33Z"/>
                <path class="cls-8" d="M60.28,129.34s.03-.05,0-.05-.03,.05,0,.05Z"/>
                <path class="cls-8" d="M62.44,112.3c2.51,0,2.51-3.9,0-3.9s-2.51,3.9,0,3.9Z"/>
                <path class="cls-8" d="M71.79,130.93c-.18,.08-.36,.16-.54,.25-.79,.36-.83,1.53-.27,2.09s1.73,.52,2.09-.27c.08-.18,.16-.36,.25-.54,.2-.44,.21-1-.17-1.35-.39-.36-.88-.39-1.35-.17Z"/>
                <path class="cls-8" d="M85.71,135.91c-2.05,0-2.05,3.18,0,3.18s2.05-3.18,0-3.18Z"/>
                <path class="cls-8" d="M114.29,125.31c.15-.54-.04-1-.37-1.41-.26-.31-.52-.63-.78-.94-.48-.59-1.43-.75-2.13-.56-.73,.2-1.32,.79-1.53,1.53-.45,1.62,1.08,3.11,2.69,2.69,.37-.1,.73-.19,1.1-.29,.49-.13,.88-.53,1.01-1.01Z"/>
                <path class="cls-8" d="M138.3,80.76c-2.02,0-2.02,3.14,0,3.14s2.02-3.14,0-3.14Z"/>
                <path class="cls-8" d="M129.24,56.3c.89,0,.89-1.38,0-1.38s-.89,1.38,0,1.38Z"/>
                <circle class="cls-8" cx="30.11" cy="34.49" r="7.27" transform="translate(-13.16 49.44) rotate(-67.94)"/>
                <path class="cls-8" d="M31.4,56.67c2.48,0,2.48-3.85,0-3.85s-2.48,3.85,0,3.85Z"/>
                <path class="cls-8" d="M38.73,50.62c4.68,0,4.69-7.27,0-7.27s-4.69,7.27,0,7.27Z"/>
                <path class="cls-8" d="M36.14,70.77c.1,0,.1-.15,0-.15s-.1,.15,0,.15Z"/>
                <path class="cls-8" d="M233.98,198.6c-5.69,0-5.7,8.84,0,8.84s5.7-8.84,0-8.84Z"/>
                <path class="cls-8" d="M217.17,205.14c-6.7,0-6.71,10.41,0,10.41s6.71-10.41,0-10.41Z"/>
                <path class="cls-8" d="M246.22,186.62c-.6,.04-1.2,.06-1.8,.09-1.1-.48-2.34-.59-3.51-.29-1.78,.46-2.94,1.68-3.59,3.37-.9,2.34,1.38,4.72,3.61,4.74,2.83,.03,5.35-.89,7.39-2.84,1.79-1.71,.49-5.24-2.1-5.07Z"/>
                <path class="cls-8" d="M208.43,37.88c6.97,4.59,15.91-2.22,22.11-5.04,2.33-1.05,2.96-4.53,1.72-6.56-4.09-6.68-12.49-5.26-18.11-1.43-.85,.58-1.53,1.33-2.02,2.18-2.13,1.02-3.99,2.65-5.3,4.75-1.32,2.12-.37,4.8,1.6,6.09Z"/>
                <path class="cls-8" d="M222.58,42.05c-.47,.47-.82,1.24-.79,1.92,.03,.7,.26,1.43,.79,1.92,.53,.49,1.18,.79,1.92,.79,.69,0,1.42-.3,1.92-.79,.47-.47,.82-1.24,.79-1.92-.03-.7-.26-1.43-.79-1.92-.53-.49-1.18-.79-1.92-.79-.69,0-1.42,.3-1.92,.79Z"/>
                <path class="cls-8" d="M233.12,39.28c3.94,0,3.95-6.13,0-6.13s-3.95,6.13,0,6.13Z"/>
                <path class="cls-8" d="M188.33,51.29c7.35,.82,12.03-6.68,8.09-12.97-1.79-2.85-5-4.45-8.23-5.03-2.08-.37-4.74-1-7.12-.82-.39-.15-.78-.28-1.19-.35-1.17-.2-2.48-.38-3.64-.04-3.76,1.1-4.65,5.23-3.18,8.46,2.42,5.33,9.5,10.1,15.27,10.74Zm-.11-7.48c-.07,.02-.12-.03-.15-.08,.14,.03,.21,.06,.15,.08Zm.9-2.17c.44-.43,.58,.19,0,0h0Z"/>
                <path class="cls-8" d="M168.04,31.58c5.69,0,5.7-8.84,0-8.84s-5.7,8.84,0,8.84Z"/>
                <path class="cls-8" d="M157.26,39.35c.8,0,1.65-.35,2.22-.92s.95-1.44,.92-2.22c-.04-.81-.3-1.65-.92-2.22-.61-.56-1.37-.92-2.22-.92-.8,0-1.65,.35-2.22,.92-.54,.54-.95,1.44-.92,2.22,.04,.81,.3,1.65,.92,2.22,.61,.56,1.37,.92,2.22,.92Z"/>
                <path class="cls-8" d="M161.14,46.36c-3.58,0-3.58,5.56,0,5.56s3.58-5.56,0-5.56Z"/>
                <path class="cls-8" d="M149.07,28.87c1.65,0,1.65-2.57,0-2.57s-1.65,2.57,0,2.57Z"/>
                <path class="cls-8" d="M134.85,32.78c-3.3,0-3.31,5.13,0,5.13s3.31-5.13,0-5.13Z"/>
                <path class="cls-8" d="M129.24,29.81c1.74,0,1.75-2.71,0-2.71s-1.75,2.71,0,2.71Z"/>
                <path class="cls-8" d="M141.74,24.64c1.19,0,1.19-1.85,0-1.85s-1.19,1.85,0,1.85Z"/>
                <path class="cls-8" d="M115.88,36.3c-2.11,0-2.11,3.28,0,3.28s2.11-3.28,0-3.28Z"/>
                <path class="cls-8" d="M191.48,25.25c1.06,0,2.17-.46,2.92-1.21,.4-.37,.69-.82,.85-1.33,.26-.49,.38-1.02,.36-1.59-.05-1.07-.4-2.17-1.21-2.92-.81-.74-1.8-1.21-2.92-1.21-1.06,0-2.17,.46-2.92,1.21-.4,.37-.69,.82-.85,1.33-.26,.49-.38,1.02-.36,1.59,.05,1.07,.4,2.17,1.21,2.92,.81,.74,1.8,1.21,2.92,1.21Z"/>
                <path class="cls-8" d="M193.12,117.69c.31-.4,.63-.81,.94-1.21,.44-.69,.68-1.43,.71-2.23,.14-.53,.14-1.06,0-1.59-.04-.8-.27-1.54-.71-2.23-.31-.4-.63-.81-.94-1.21-.4-.31-.81-.62-1.21-.94-.69-.44-1.43-.68-2.23-.71-.8-.18-1.59-.14-2.39,.11-.22,.03-.44,.07-.66,.11-1.05,.29-1.96,.83-2.74,1.59-.77,.77-1.3,1.69-1.59,2.74-.07,.55-.15,1.1-.22,1.65,0,1.12,.29,2.16,.85,3.13,.39,.72,.92,1.3,1.6,1.74,.6,.55,1.3,.92,2.11,1.11,2.15,.59,4.45-.04,6.03-1.59,.15-.15,.31-.3,.46-.45Z"/>
                <path class="cls-8" d="M199.93,116.61c-2.48,0-2.48,3.85,0,3.85s2.48-3.85,0-3.85Z"/>
                <path class="cls-8" d="M198.64,110.48c1.28,0,1.29-2,0-2s-1.29,2,0,2Z"/>
                <path class="cls-8" d="M187.86,103.73c2.02,0,2.02-3.14,0-3.14s-2.02,3.14,0,3.14Z"/>
                <path class="cls-8" d="M169.76,112.23c-2.57,0-2.57,3.99,0,3.99s2.57-3.99,0-3.99Z"/>
                <path class="cls-8" d="M168.04,124.45c-3.49,0-3.49,5.42,0,5.42s3.49-5.42,0-5.42Z"/>
                <path class="cls-8" d="M162.31,135.47c-.92-.84-2.05-1.38-3.33-1.38-.65-.02-1.25,.11-1.81,.41-.58,.19-1.09,.51-1.51,.97-.46,.43-.78,.93-.97,1.51-.29,.56-.43,1.16-.41,1.81,.06,.42,.11,.83,.17,1.25,.22,.8,.63,1.49,1.21,2.08,.92,.85,2.05,1.38,3.33,1.38,.65,.02,1.25-.11,1.81-.41,.58-.19,1.09-.51,1.51-.97,.46-.43,.78-.93,.97-1.51,.29-.56,.43-1.16,.41-1.81-.06-.42-.11-.83-.17-1.25-.22-.8-.63-1.49-1.21-2.08Z"/>
              </g>
            </g>
            <rect class="cls-10" x="10.13" y="14.95" width="283.91" height="208.14"/>
          </g>
          <rect class="cls-3" y="4.54" width="304.11" height="228.08"/>
        </g>
      </g>
    </g>
  </g>
</svg>