<?xml version="1.0" encoding="UTF-8"?>
<svg xmlns="http://www.w3.org/2000/svg" viewBox="0 0 300.6 151.19">
  <defs>
    <style>
      .cls-1 {
        fill: #2c262e;
      }

      .cls-2 {
        fill: #160d17;
      }

      .cls-3 {
        isolation: isolate;
      }

      .cls-4 {
        fill: #161317;
        mix-blend-mode: multiply;
        opacity: .14;
      }

      .cls-5 {
        fill: #7a898c;
      }

      .cls-6 {
        fill: #544957;
      }
    </style>
  </defs>
  <g class="cls-3">
    <g id="_Шар_1" data-name="Шар 1">
      <g>
        <path class="cls-2" d="M287.98,151.19H0v-25.24H287.98c6.97,0,12.62,5.65,12.62,12.62h0c0,6.97-5.65,12.62-12.62,12.62Z"/>
        <path d="M1.25,0H27.01c.69,0,1.25,.56,1.25,1.25V125.94H0V1.25C0,.56,.56,0,1.25,0Z"/>
        <path class="cls-1" d="M29.52,0h25.76c.69,0,1.25,.56,1.25,1.25V125.94H28.27V1.25c0-.69,.56-1.25,1.25-1.25Z"/>
        <path d="M57.79,28.37h25.76c.69,0,1.25,.56,1.25,1.25V125.94h-28.27V29.62c0-.69,.56-1.25,1.25-1.25Z"/>
        <g>
          <path class="cls-5" d="M256.06,120.56H104.88v-23.59h151.18c-4.29,7.86-4.29,15.73,0,23.59Z"/>
          <path class="cls-6" d="M260.37,95.85h0c0-1.93-1.57-3.5-3.5-3.5H107.35c-3.13,0-5.67,2.54-5.67,5.67v21.24c0,3.13,2.54,5.67,5.67,5.67h149.52c1.93,0,3.5-1.57,3.5-3.5h0c0-1.93-1.57-3.5-3.5-3.5H112.53c-2.16,0-3.9-1.75-3.9-3.9v-10.76c0-2.16,1.75-3.9,3.9-3.9h144.34c1.93,0,3.5-1.57,3.5-3.5Z"/>
          <path class="cls-4" d="M122.84,107.16s11.79-.8,36.72-1.34c24.93-.54,75.59,1.34,75.59,1.34H122.84Z"/>
          <path class="cls-4" d="M174.71,113.32s7.68-.54,23.93-.89c16.24-.36,49.25,.89,49.25,.89h-73.18Z"/>
        </g>
        <g>
          <path class="cls-5" d="M236.1,87.67H107.13V53.47H236.1c-3.66,7.14-3.66,27.05,0,34.2Z"/>
          <path d="M239.78,52.45h0c0-1.76-1.34-3.18-2.99-3.18H109.24c-2.67,0-4.83,2.3-4.83,5.15v32.06c0,2.84,2.16,5.15,4.83,5.15h127.55c1.65,0,2.99-1.42,2.99-3.18h0c0-1.76-1.34-3.18-2.99-3.18H113.66c-1.84,0-3.33-1.59-3.33-3.55v-9.78c0-1.96,1.49-16.31,3.33-16.31h123.13c1.65,0,2.99-1.42,2.99-3.18Z"/>
          <path class="cls-4" d="M229.13,79.78s-10.06,.73-31.33,1.22c-21.27,.49-64.49-1.22-64.49-1.22h95.81Z"/>
          <path class="cls-4" d="M211.84,59.01s-10.06,.73-31.33,1.22c-21.27,.49-64.49-1.22-64.49-1.22h95.81Z"/>
          <path class="cls-4" d="M184.88,74.18s-6.56,.49-20.41,.81c-13.86,.33-42.02-.81-42.02-.81h62.43Z"/>
          <path class="cls-4" d="M222.28,63.44s-6.56,.49-20.41,.81c-13.86,.33-42.02-.81-42.02-.81h62.43Z"/>
        </g>
      </g>
    </g>
  </g>
</svg>