<?xml version="1.0" encoding="UTF-8"?>
<svg id="_Шар_2" data-name="Шар 2" xmlns="http://www.w3.org/2000/svg" viewBox="0 0 69.74 59.01">
  <defs>
    <style>
      .cls-1 {
        fill: #2c262e;
      }

      .cls-2 {
        fill: #0c060d;
      }

      .cls-3 {
        opacity: .17;
      }
    </style>
  </defs>
  <g id="Layer_2" data-name="Layer 2">
    <g>
      <path class="cls-2" d="M68.57,14.19c-2.03-2.7-8.7-14.19-33.4-14.19S0,11.15,0,13.85s0,12.5,3.38,14.19c3.38,1.69,8.44,2.03,9.8-.34,1.35-2.36,2.36-10.16,4.05-12,.37-.41,2.23-.78,4.9-1.06-.08,.46-.11,1-.11,1.59-.55,.17-.92,.39-1.08,.66-1.35,2.36-5.74,19.59-6.42,20.6-.68,1.01-8.78,6.08-8.78,7.77s-1.69,12.84,0,13.51c1.69,.68,57.42-.34,58.43,0,1.01,.34,2.03-13.51,0-13.85-2.03-.34-8.11-5.07-8.11-5.07,0,0-6.42-20.27-7.77-21.62-.3-.3-1.72-.67-3.76-1.03-.02-1.13-.09-2.05-.24-2.49,4.44,.56,7.73,1.57,8.05,3.18,.34,1.66,2.03,10.6,4.73,12.9,2.7,2.3,10.47-.06,11.48-1.75,1.01-1.69,2.03-12.16,0-14.86Zm-31.18,2.07c-2.7-.27-5.55-.48-8.11-.54-.07-.56-.13-1.08-.17-1.53,2.74-.09,5.69-.09,8.53,.02-.16,.41-.23,1.15-.25,2.05Z"/>
      <g class="cls-3">
        <g>
          <path class="cls-1" d="M53.37,46.61c-5.26-1.38-29.36-5.46-39.18-8.77-1.68,1.52-8.45,5.88-8.45,7.42,0,1.15-.78,6.65-.75,10.28,14.58,1.59,56.27-.65,60.21-1.49,.2-2.62,.21-5.69-.16-7.52-4.07,.56-8.68,.88-11.68,.09Z"/>
          <path class="cls-1" d="M69.69,22.39c.16-3.28-.07-6.8-1.12-8.21-2.03-2.7-8.7-14.19-33.4-14.19S0,11.15,0,13.85c0,.58,0,1.48,.03,2.56C10.86,10.79,29.37,4.13,40.19,3.38c11.82-.82,22.74,10.43,29.49,19.01Z"/>
        </g>
      </g>
    </g>
  </g>
</svg>