<?xml version="1.0" encoding="UTF-8"?>
<svg xmlns="http://www.w3.org/2000/svg" xmlns:xlink="http://www.w3.org/1999/xlink" viewBox="0 0 241.31 242.62">
  <defs>
    <style>
      .cls-1 {
        fill: #2c262e;
      }

      .cls-2 {
        fill: #4b464d;
      }

      .cls-3 {
        fill: #251f26;
      }

      .cls-4 {
        isolation: isolate;
      }

      .cls-5 {
        fill: url(#linear-gradient);
      }

      .cls-5, .cls-6 {
        opacity: .14;
      }

      .cls-5, .cls-6, .cls-7 {
        mix-blend-mode: multiply;
      }

      .cls-6 {
        fill: url(#linear-gradient-2);
      }

      .cls-8 {
        fill: #88989c;
      }

      .cls-7 {
        fill: #606060;
        opacity: .29;
      }

      .cls-9 {
        fill: #90a2a6;
      }

      .cls-10 {
        fill: #7a898c;
      }

      .cls-11 {
        opacity: .42;
      }

      .cls-12 {
        fill: #4a5764;
      }
    </style>
    <linearGradient id="linear-gradient" x1="177.12" y1="49.88" x2="209.53" y2="49.88" gradientUnits="userSpaceOnUse">
      <stop offset="0" stop-color="#fff"/>
      <stop offset="1" stop-color="#000"/>
    </linearGradient>
    <linearGradient id="linear-gradient-2" x1="208.9" x2="241.31" xlink:href="#linear-gradient"/>
  </defs>
  <g class="cls-4">
    <g id="_Шар_2" data-name="Шар 2">
      <g id="Layer_2" data-name="Layer 2">
        <g>
          <rect class="cls-1" y="102.65" width="241.31" height="139.97"/>
          <rect x="5.1" y="108.51" width="141.12" height="74.65"/>
          <rect class="cls-1" x="40.83" y="77.77" width="69.65" height="136.12" transform="translate(221.49 70.18) rotate(90)"/>
          <rect x="159.83" y="108.51" width="81.48" height="74.65"/>
          <rect class="cls-1" x="162.33" y="111.01" width="78.98" height="69.65"/>
          <rect x="5.1" y="201.48" width="141.12" height="41.14"/>
          <rect class="cls-1" x="56.34" y="155.24" width="38.64" height="136.12" transform="translate(298.95 147.64) rotate(90)"/>
          <rect x="159.83" y="201.48" width="81.48" height="41.14"/>
          <rect class="cls-1" x="162.33" y="203.98" width="78.98" height="38.64"/>
          <rect class="cls-10" x="41.98" y="207.34" width="67.12" height="12.07"/>
          <rect class="cls-10" x="196.72" y="207.34" width="44.6" height="12.07"/>
          <rect class="cls-10" x="196.72" y="114.43" width="44.6" height="12.07"/>
          <path d="M0,102.65l25.36-15.88c2.38-1.49,5.13-2.28,7.93-2.28H241.31v18.16H0Z"/>
          <polygon class="cls-12" points="41.98 207.34 41.98 219.41 43.35 219.41 43.35 208.36 109.1 208.36 109.1 207.34 41.98 207.34"/>
          <polygon class="cls-12" points="196.72 114.36 196.72 126.44 198.09 126.44 198.09 115.38 241.31 115.38 241.31 114.36 196.72 114.36"/>
          <polygon class="cls-12" points="196.72 207.34 196.72 219.41 198.09 219.41 198.09 208.36 241.31 208.36 241.31 207.34 196.72 207.34"/>
          <g class="cls-11">
            <g>
              <path class="cls-2" d="M23.01,167.24c.1-1.84-.32-3.89-1.31-5.46-.83-1.33-2.6-2.29-3.97-1.08-.7,.62-1.06,1.67-1.26,2.74-.1,.19-.19,.39-.27,.6-1.12,1.12-1.42,2.69-1.16,4.25,.19,1.14,.74,2.62,1.81,3.14,.1,.11,.2,.22,.31,.33,1.07,.95,2.78,1.34,4,.45,1.39-1.02,1.76-3.37,1.85-4.96Z"/>
              <path class="cls-2" d="M24.34,172.67c.27,.71,.86,1.18,1.65,1.07,.49-.07,.86-.36,1.08-.76,.73-.1,1.38-.7,1.35-1.48-.04-.79-.66-1.53-1.5-1.5-.37,.01-.73,.03-1.1,.04,0,0,0,0,0,0-.22-.05-.46-.06-.71,.01-.73,.2-1.33,1.08-1.05,1.85,.1,.26,.19,.51,.29,.77Z"/>
              <path class="cls-2" d="M25.53,163.39c.43,1.09,1.38,2.94,2.54,3.81,.57,.53,1.22,.92,1.96,1.09,3.11,.69,4.17-2.33,4.07-4.84-.12-3.3-1.8-6.1-3.76-8.64-1-2.43-2.5-3.93-4.39-2.83-.87,.51-1.29,1.54-1.45,2.74-1.07,2.68,.03,6.15,1.02,8.66Z"/>
              <path class="cls-2" d="M13.99,154.03c.44,.18,1,.16,1.36-.08,.19-.12,.3-.22,.43-.37,.15-.18,.25-.38,.33-.59,.03-.05,.06-.1,.09-.15,.11-.2,.24-.39,.34-.59,.36-.73,.19-1.62-.54-2.05-.73-.43-1.48-.14-1.98,.45-.09,.07-.19,.12-.29,.18-.21,.13-.42,.25-.61,.4-.65,.49-.98,1.29-.54,2.05,.26,.45,.86,.77,1.41,.75Z"/>
              <path class="cls-2" d="M14.89,214.39c-.99,.03-1.66,.68-2.13,1.58-.77-.29-1.71-.06-1.91,.95-.57,2.93-1.15,6.75,.11,9.58,.37,.83,1.04,1.54,1.84,1.97,.12,.12,.24,.24,.38,.35,1.89,1.47,4.27-.07,4.9-2.08,.67-2.13,.73-4.87,.2-7.22-.21-2.82-1.22-5.2-3.39-5.13Zm.25,5.68c.03,.36,.06,.73,.06,1.1-.09-.33-.09-.69-.06-1.1Zm-.75,4.52c.15,.03,.29,.03,.43,.01-.05,.34-.1,.63-.3,.73-.07-.2-.11-.46-.13-.74Z"/>
              <path class="cls-2" d="M24.58,210.09s-.1-.08-.15-.12c-.02-.02-.05-.04-.08-.06-.95-.72-2.4-.43-3.02,.59-.2,.33-.24,.73-.15,1.1,.04,1.27,1.32,2.15,2.56,1.73,1.36-.47,1.87-2.15,.84-3.22Zm-1.58,2.38s0,0-.01,0c-.08-.01-.16-.04-.24-.08,.08,.04,.17,.06,.25,.08Z"/>
              <path class="cls-2" d="M26.63,223.49c.18-.1,.32-.23,.43-.37,.22-.07,.43-.17,.59-.34,.58-.58,.57-1.54,0-2.12-.64-.65-1.63-.73-2.4-.24-.92,.59-1.08,1.58-.67,2.54,.32,.75,1.42,.91,2.05,.54Zm.7-1.35s0-.03,0-.05c0,0,0,.01,0,.02,0,.01,0,.02,0,.03Zm-1.53,.82c-.1-.04-.2-.1-.27-.18,.08,.08,.18,.12,.27,.18Z"/>
              <path class="cls-2" d="M38.8,231.73c-.34-.22-.7-.41-1.07-.59-.61-1.01-1.76-1.36-2.9-1.29,0-.01-.01-.03-.02-.04-2.72-3.79-9.8,.88-9.39,4.84,.16,1.62,1.29,2.43,2.65,2.79,.98,.87,2.43,.93,3.74,.66,1.04-.22,2.51-.84,3.78-1.72,1.26-.59,2.43-1.36,3.52-2.29,.77-.66,.45-1.87-.3-2.36Z"/>
              <path class="cls-2" d="M137.97,121.84c-.23-1.21-1.42-1.89-2.7-1.56-3.1-1.72-5.62,2.62-7.14,4.75-1.22,1.71-2.31,3.51-3.24,5.39-.61,1.23-1.56,2.79-.93,4.19,.88,1.95,2.81,1.43,4.55,.38,.52,.1,.94-.09,1.22-.42,.09-.02,.18-.04,.27-.07,3.2-.95,6.25-4.75,7.62-7.65,.66-1.38,.95-3.56,.35-5.01Z"/>
              <path class="cls-2" d="M137.66,135.58c-.52-.52-1.62-.64-2.12,0-.29,.37-.58,.75-.87,1.12-.5,.64-.62,1.5,0,2.12,.52,.52,1.62,.64,2.12,0,.29-.37,.58-.75,.87-1.12,.5-.64,.62-1.5,0-2.12Z"/>
              <path class="cls-2" d="M139.16,137.69c-1.93,0-1.93,3,0,3s1.93-3,0-3Z"/>
              <path class="cls-2" d="M130.38,144.21c-1.93,0-1.93,3,0,3s1.93-3,0-3Z"/>
              <path class="cls-2" d="M176.58,127.35c.57-.35,1.08-.77,1.45-1.21,1.05-1.25,1.81-3.48,.59-4.77-.13-.47-.41-.88-.9-1.16-1.12-.65-2.2-.09-3.1,.74-.7-.8-2.22-.88-2.98,.22-1.11,1.62-1.62,4.31-1.66,6.24-.05,2.15,1.93,3.11,3.79,2.25,1.07-.49,2.03-1.34,2.8-2.32Z"/>
              <path class="cls-2" d="M185.08,121.42c.78,0,1.54-.69,1.5-1.5-.04-.81-.66-1.5-1.5-1.5h-.28c-.78,0-1.54,.69-1.5,1.5,.04,.81,.66,1.5,1.5,1.5h.28Z"/>
              <path class="cls-2" d="M171.19,117.17c1.93,0,1.93-3,0-3s-1.93,3,0,3Z"/>
              <path class="cls-2" d="M167.31,141.72c.35,1.15,1.35,2.03,2.7,2.08,1.06,.04,1.6-.98,1.45-1.9-.3-1.76-1.94-2.98-3.66-3.07-.78-.04-1.54,.72-1.5,1.5,.03,.67,.43,1.18,1.02,1.39Z"/>
              <path class="cls-2" d="M180.55,132.59h-.28c-.78,0-1.54,.69-1.5,1.5,.04,.81,.66,1.5,1.5,1.5h.28c.78,0,1.54-.69,1.5-1.5-.04-.81-.66-1.5-1.5-1.5Z"/>
              <path class="cls-2" d="M193.08,154.3c-.02-.11-.07-.21-.1-.32,.63-1.6-.54-3.28-2.34-2.92-.09,.02-.18,.05-.27,.08-.46-.46-1.29-.68-1.83-.26-1.32,1-2.44,2.2-3.16,3.71-.6,1.25-1.57,3.39-.15,4.4,.9,.64,1.86,.46,2.74,.02,.75,.02,1.53-.21,2.19-.5,1.66-.74,3.31-2.19,2.93-4.21Z"/>
              <path class="cls-2" d="M167.55,211.93c-.63,1.34-.96,2.68-1.02,4.04-.71,2.61-.25,5.36,1.25,7.67,.48,.73,1.71,1.1,2.36,.3,2.95-3.67,2.9-8.76-.24-12.31-.6-.68-1.96-.54-2.36,.3Z"/>
              <path class="cls-2" d="M178.56,211.4c-1.93,0-1.93,3,0,3s1.93-3,0-3Z"/>
              <path class="cls-2" d="M179.7,220.47c-1.93,0-1.93,3,0,3s1.93-3,0-3Z"/>
              <path class="cls-2" d="M205.83,234.3c.46-2.7-3.06-4.65-4.99-5.76-1.71-1-5.07-3.19-7.06-1.81-.04,.03-.07,.06-.1,.08-.33,.11-.65,.27-.95,.52-1.86,1.5-1.02,4.12,.4,5.56,2,2.03,4.91,3.3,7.7,3.72,1.15,.18,2.5,.16,3.52-.33,.97-.02,1.92-1.02,1.48-1.98Z"/>
              <path class="cls-2" d="M175.73,230.67c-1.93,0-1.93,3,0,3s1.93-3,0-3Z"/>
              <path class="cls-2" d="M160.41,188.66c-1.74,.03-3.47,.4-3.67,2.27-.28,2.67,2.59,3.46,4.69,3.15,1.86-.28,5.16-1.86,3.8-4.29-.9-1.61-3.09-1.61-4.83-1.13Z"/>
              <path class="cls-2" d="M154.52,199.63c-.09,.1-.18,.2-.27,.29-.55,.6-.59,1.53,0,2.12,.56,.56,1.57,.6,2.12,0,.09-.1,.18-.2,.27-.29,.55-.6,.59-1.53,0-2.12-.56-.56-1.57-.6-2.12,0Z"/>
              <path class="cls-2" d="M154.9,188.23c.16-.21,.29-.44,.35-.71,.15-.73-.15-1.48-.87-1.77-.43-.17-1.01-.14-1.42,.12-.44-.02-.91,.13-1.2,.43-.6,.6-.51,1.42-.05,2.05,.05,.29,.16,.58,.38,.8,.57,.57,1.55,.58,2.12,0,.27-.27,.5-.59,.69-.92Z"/>
              <path class="cls-2" d="M152.85,114.53v-7.37c0-1.93-3-1.93-3,0v7.37c0,1.93,3,1.93,3,0Z"/>
              <path class="cls-2" d="M154.29,113.69c.83,.19,1.58-.25,1.85-1.05,.09-.28,.19-.57,.28-.85,.25-.74-.29-1.67-1.05-1.85-.83-.19-1.58,.25-1.85,1.05-.09,.28-.19,.57-.28,.85-.25,.74,.29,1.67,1.05,1.85Z"/>
              <path class="cls-2" d="M151.82,117.5c-.4,.81-.37,1.67,.18,2.41,.51,.68,1.4,1.09,2.25,.85,1.05-.29,1.46-1.57,.91-2.46-.18-.29-.43-.5-.7-.64-.11-.28-.29-.53-.58-.7-.66-.39-1.69-.19-2.05,.54Zm2.68,1.2c-.02,.11-.05,.22-.09,.31,.05-.1,.06-.21,.09-.31Z"/>
              <path class="cls-2" d="M152.49,130.49c1.93,0,1.93-3,0-3s-1.93,3,0,3Z"/>
            </g>
          </g>
        </g>
        <g>
          <polygon class="cls-8" points="51.33 81.32 30.53 93.51 86.7 93.2 97.82 81.53 51.33 81.32"/>
          <polygon class="cls-12" points="97.82 81.53 97.82 89.66 87.33 100.15 86.7 93.2 97.82 81.53"/>
          <polygon class="cls-10" points="86.7 93.2 30.53 93.51 31.71 99.68 87.33 100.15 86.7 93.2"/>
          <polygon class="cls-9" points="51.33 81.32 30.53 92.82 86.2 92.31 97.82 81.53 51.33 81.32"/>
          <polygon class="cls-7" points="92.26 90.49 86.89 95.3 78.72 95.3 86.93 95.75 92.26 90.49"/>
          <polygon class="cls-7" points="96.91 87.82 87.15 98.18 65.18 98.53 87.18 98.53 96.91 87.82"/>
          <polygon class="cls-7" points="30.8 94.9 36.88 95.14 30.8 95.14 30.8 94.9"/>
          <polygon class="cls-7" points="31.19 96.96 45.37 96.96 31.19 97.41 31.19 96.96"/>
          <g>
            <polygon class="cls-7" points="51.67 82.04 35.3 91.81 36.38 91.81 52.41 82.04 51.67 82.04"/>
            <polygon class="cls-7" points="54.55 82.04 39.01 91.81 40.08 91.81 55.29 82.04 54.55 82.04"/>
            <polygon class="cls-7" points="57.43 82.04 42.79 91.81 43.87 91.81 58.17 82.04 57.43 82.04"/>
            <polygon class="cls-7" points="60.3 82.04 46.21 91.81 47.28 91.81 61.05 82.04 60.3 82.04"/>
            <polygon class="cls-7" points="63.18 82.04 49.08 91.81 50.16 91.81 63.92 82.04 63.18 82.04"/>
            <polygon class="cls-7" points="66.06 82.04 51.96 91.81 53.04 91.81 66.8 82.04 66.06 82.04"/>
            <polygon class="cls-7" points="68.94 82.04 54.84 91.81 55.92 91.81 69.68 82.04 68.94 82.04"/>
            <polygon class="cls-7" points="71.82 82.04 57.72 91.81 58.8 91.81 72.56 82.04 71.82 82.04"/>
            <polygon class="cls-7" points="74.7 82.04 61.72 91.81 62.8 91.81 75.44 82.04 74.7 82.04"/>
            <polygon class="cls-7" points="77.57 82.04 64.64 91.81 65.72 91.81 78.31 82.04 77.57 82.04"/>
            <polygon class="cls-7" points="80.45 82.04 68.6 91.81 69.68 91.81 81.19 82.04 80.45 82.04"/>
            <polygon class="cls-7" points="83.33 82.04 72.02 91.81 73.1 91.81 84.07 82.04 83.33 82.04"/>
            <polygon class="cls-7" points="86.21 82.04 77.78 91.81 78.85 91.81 86.95 82.04 86.21 82.04"/>
            <polygon class="cls-7" points="89.09 82.04 82.99 91.81 84.07 91.81 89.83 82.04 89.09 82.04"/>
          </g>
        </g>
        <g>
          <g>
            <rect class="cls-1" x="177.12" width="32.41" height="99.75"/>
            <rect class="cls-10" x="183" y="4.05" width="20.65" height="7.64"/>
            <polygon class="cls-12" points="183 4.05 183 11.69 183.42 11.69 183.42 4.69 203.65 4.69 203.65 4.05 183 4.05"/>
          </g>
          <g>
            <rect class="cls-3" x="208.9" width="32.41" height="99.75"/>
            <rect class="cls-10" x="214.78" y="4.05" width="20.65" height="7.64"/>
            <polygon class="cls-12" points="214.78 4.05 214.78 11.69 215.2 11.69 215.2 4.69 235.43 4.69 235.43 4.05 214.78 4.05"/>
          </g>
          <rect class="cls-5" x="177.12" width="32.41" height="99.75"/>
          <rect class="cls-6" x="208.9" width="32.41" height="99.75"/>
        </g>
      </g>
    </g>
  </g>
</svg>