<?xml version="1.0" encoding="UTF-8"?>
<svg xmlns="http://www.w3.org/2000/svg" viewBox="0 0 692.67 346.46">
  <defs>
    <style>
      .cls-1 {
        fill: #2c262e;
      }

      .cls-2 {
        isolation: isolate;
      }

      .cls-3, .cls-4 {
        fill: #161317;
      }

      .cls-4 {
        mix-blend-mode: multiply;
        opacity: .14;
      }

      .cls-5 {
        fill: #7a898c;
      }

      .cls-6 {
        fill: #544957;
      }
    </style>
  </defs>
  <g class="cls-2">
    <g id="_Шар_1" data-name="Шар 1">
      <g>
        <rect x="626.03" y="114.82" width="65.96" height="231.61"/>
        <rect x="120.17" y="114.82" width="65.96" height="231.61"/>
        <g>
          <path d="M261.17,105.73h-22.96V1.25c0-.69,.56-1.25,1.25-1.25h20.46c.69,0,1.25,.56,1.25,1.25V105.73Z"/>
          <path d="M421.53,105.73h-22.96V1.25c0-.69,.56-1.25,1.25-1.25h20.46c.69,0,1.25,.56,1.25,1.25V105.73Z"/>
          <path d="M418.19,24.01c-57.53,7.7-113.77,8.1-168.51,0V6.97c56.17,6.91,112.34,6.91,168.51,0V24.01Z"/>
          <path d="M418.19,56.6c-57.53,7.7-113.77,8.1-168.51,0v-17.04c56.17,6.91,112.34,6.91,168.51,0v17.04Z"/>
          <path d="M418.19,89.19c-57.53,7.7-113.77,8.1-168.51,0v-17.04c56.17,6.91,112.34,6.91,168.51,0v17.04Z"/>
        </g>
        <polygon class="cls-1" points="11.97 175.71 11.97 346.43 156.6 346.43 156.6 249.44 500.5 249.44 500.5 346.43 645.13 346.43 645.13 175.71 11.97 175.71"/>
        <polygon class="cls-3" points="692.67 109.03 691.99 131.56 659.59 186.99 655.16 164.92 692.67 109.03"/>
        <rect class="cls-5" x="154.57" y="196.14" width="343.81" height="39.01"/>
        <rect class="cls-5" x="514.21" y="200.94" width="118.28" height="145.52"/>
        <rect class="cls-6" x="159.74" y="201.36" width="333.47" height="28.57"/>
        <rect x="239.17" y="277.57" width="22.96" height="68.9"/>
        <rect x="404.37" y="277.57" width="22.96" height="68.9"/>
        <rect x="266.98" y="277.57" width="22.96" height="68.9"/>
        <rect x="375.12" y="277.57" width="22.96" height="68.9"/>
        <rect class="cls-6" x="520.66" y="208.7" width="105.37" height="137.72"/>
        <rect class="cls-5" x="24.47" y="200.94" width="118.28" height="145.52"/>
        <rect class="cls-6" x="30.93" y="208.7" width="105.37" height="137.72"/>
        <path class="cls-1" d="M439.8,287.66s-1.34,20-4.3,20.74c-2.96,.74-207.39,2.96-211.1,0-3.7-2.96-5.78-20.74-5.78-20.74h221.18Z"/>
        <path d="M238.14,249.44l-18.56,34.64c-2.84,5.3,1,11.72,7.02,11.72h205.24c6.18,0,10.01-6.74,6.83-12.05l-20.53-34.31H238.14Z"/>
        <path class="cls-4" d="M12.01,184.39H645.13v84.52c-204.96-89.96-416.03-89.49-633.12,0v-84.52Z"/>
        <path class="cls-6" d="M655.16,164.92L0,164.43l64.91-55.4c1.49-3.2,4.7-5.25,8.23-5.25H684.44c3.53,0,6.74,2.05,8.23,5.25l-37.52,55.89Z"/>
        <rect class="cls-3" y="164.43" width="659.59" height="22.56"/>
      </g>
    </g>
  </g>
</svg>